# This file uses centimeters as units for non-parametric coordinates.

mtllib boxround3.mtl
g default
v -1.000000 0.000000 1.000000
v 1.000000 0.000000 1.000000
v -0.878557 2.000000 0.878557
v 0.878557 2.000000 0.878557
v -0.878557 2.000000 -0.878557
v 0.878557 2.000000 -0.878557
v -1.000000 0.000000 -1.000000
v 1.000000 0.000000 -1.000000
v -1.000000 1.781143 1.000000
v 1.000000 1.781143 1.000000
v 1.000000 1.781143 -1.000000
v -1.000000 1.781143 -1.000000
v -0.972797 1.901929 0.972797
v 0.972797 1.901929 0.972797
v 0.972797 1.901929 -0.972797
v -0.972797 1.901929 -0.972797
v -0.952835 1.951812 0.952835
v 0.952835 1.951812 0.952835
v 0.952835 1.951812 -0.952835
v -0.952835 1.951812 -0.952835
vt 0.375000 0.000000
vt 0.625000 0.000000
vt 0.625000 0.250000
vt 0.375000 0.250000
vt 0.625000 0.500000
vt 0.375000 0.500000
vt 0.625000 0.750000
vt 0.375000 0.750000
vt 0.625000 1.000000
vt 0.375000 1.000000
vt 0.875000 0.000000
vt 0.875000 0.250000
vt 0.125000 0.000000
vt 0.125000 0.250000
vt 0.375000 0.222643
vt 0.625000 0.222643
vt 0.625000 0.527357
vt 0.875000 0.222643
vt 0.375000 0.527357
vt 0.125000 0.222643
vt 0.375000 0.237741
vt 0.625000 0.237741
vt 0.625000 0.512259
vt 0.875000 0.237741
vt 0.375000 0.512259
vt 0.125000 0.237741
vt 0.375000 0.243976
vt 0.625000 0.243976
vt 0.625000 0.506024
vt 0.875000 0.243976
vt 0.375000 0.506024
vt 0.125000 0.243976
vn -0.000000 0.592543 0.805539
vn -0.000000 0.592543 0.805539
vn 0.000000 0.000000 1.000000
vn 0.000000 0.000000 1.000000
vn 0.000000 1.000000 0.000000
vn 0.000000 1.000000 0.000000
vn 0.000000 1.000000 0.000000
vn 0.000000 1.000000 0.000000
vn 0.000000 0.000000 -1.000000
vn 0.000000 0.000000 -1.000000
vn 0.000000 0.592543 -0.805539
vn 0.000000 0.592543 -0.805539
vn 0.000000 -1.000000 0.000000
vn 0.000000 -1.000000 0.000000
vn 0.000000 -1.000000 0.000000
vn 0.000000 -1.000000 0.000000
vn 0.805539 0.592543 -0.000000
vn 0.805539 0.592543 -0.000000
vn 1.000000 0.000000 0.000000
vn 1.000000 0.000000 0.000000
vn -0.805539 0.592543 0.000000
vn -0.805539 0.592543 0.000000
vn -1.000000 0.000000 0.000000
vn -1.000000 0.000000 0.000000
vn 0.000000 0.000000 1.000000
vn 0.000000 0.000000 1.000000
vn 0.000000 0.012281 0.999925
vn 0.000000 0.012281 0.999925
vn 1.000000 0.000000 0.000000
vn 1.000000 0.000000 0.000000
vn 0.999925 0.012281 0.000000
vn 0.999925 0.012281 0.000000
vn 0.000000 0.012281 -0.999925
vn 0.000000 0.012281 -0.999925
vn 0.000000 0.000000 -1.000000
vn 0.000000 0.000000 -1.000000
vn -1.000000 0.000000 0.000000
vn -1.000000 0.000000 0.000000
vn -0.999925 0.012281 0.000000
vn -0.999925 0.012281 0.000000
vn -0.000000 0.254220 0.967147
vn -0.000000 0.254220 0.967146
vn 0.967147 0.254220 -0.000000
vn 0.967147 0.254220 -0.000000
vn 0.000000 0.254220 -0.967147
vn 0.000000 0.254220 -0.967146
vn -0.967147 0.254220 0.000000
vn -0.967147 0.254220 0.000000
s 1
g box3:pCube1
usemtl box3:initialShadingGroup
f 17/27/1 18/28/2 4/3/3 3/4/4
s off
f 3/4/5 4/3/6 6/5/7 5/6/8
s 2
f 5/6/9 6/5/10 19/29/11 20/31/12
s off
f 7/8/13 8/7/14 2/9/15 1/10/16
s 3
f 18/28/17 19/30/18 6/12/19 4/3/20
s 4
f 20/32/21 17/27/22 3/4/23 5/14/24
s 1
f 1/1/25 2/2/26 10/16/27 9/15/28
s 3
f 2/2/29 8/11/30 11/18/31 10/16/32
s 2
f 12/19/33 11/17/34 8/7/35 7/8/36
s 4
f 7/13/37 1/1/38 9/15/39 12/20/40
s 1
f 9/15/28 10/16/27 14/22/41 13/21/42
s 3
f 10/16/32 11/18/31 15/24/43 14/22/44
s 2
f 16/25/45 15/23/46 11/17/34 12/19/33
s 4
f 12/20/40 9/15/39 13/21/47 16/26/48
s 1
f 13/21/42 14/22/41 18/28/2 17/27/1
s 3
f 14/22/44 15/24/43 19/30/18 18/28/17
s 2
f 20/31/12 19/29/11 15/23/46 16/25/45
s 4
f 16/26/48 13/21/47 17/27/22 20/32/21
