# This file uses centimeters as units for non-parametric coordinates.

mtllib door.mtl
g default
v -0.200424 0.000990 0.019253
v 0.200424 0.000990 0.019253
v -0.200424 0.027161 0.019253
v 0.200424 0.027161 0.019253
v -0.200424 0.027161 -0.017876
v 0.200424 0.027161 -0.017876
v -0.200424 0.000990 -0.017876
v 0.200424 0.000990 -0.017876
v 0.224159 0.000990 -0.017876
v 0.224159 0.000990 0.019253
v 0.224159 0.027161 -0.017876
v 0.224159 0.027161 0.019253
v -0.224159 0.000990 -0.017876
v -0.224159 0.000990 0.019253
v -0.224159 0.027161 0.019253
v -0.224159 0.027161 -0.017876
v 0.200820 0.828442 0.018635
v 0.200820 0.828442 -0.017257
v 0.223764 0.828442 0.018635
v 0.223764 0.828442 -0.017257
v -0.200820 0.828442 0.018635
v -0.200820 0.828442 -0.017257
v -0.223764 0.828442 -0.017257
v -0.223764 0.828442 0.018635
v -0.000108 0.027161 0.019253
v -0.000108 0.027161 -0.017876
v -0.000108 0.000990 -0.017876
v -0.000108 0.000990 0.019253
v -0.016540 0.027161 0.019253
v -0.016540 0.027161 -0.017876
v -0.016540 0.000990 -0.017876
v -0.016540 0.000990 0.019253
v 0.016342 0.027161 0.019253
v 0.016342 0.027161 -0.017876
v 0.016342 0.000990 -0.017876
v 0.016342 0.000990 0.019253
v -0.000107 0.828442 0.013993
v 0.014012 0.828442 0.013993
v 0.014012 0.828442 -0.012616
v -0.000107 0.828442 -0.012616
v -0.014212 0.828442 0.013993
v -0.014212 0.828442 -0.012616
v -0.395358 0.000000 -0.010440
v -0.356772 0.000000 -0.010440
v 0.356772 0.000000 -0.010440
v 0.395358 0.000000 -0.010440
v -0.395358 0.294616 -0.010440
v -0.356771 0.294616 -0.010440
v 0.356771 0.294616 -0.010440
v 0.395358 0.294616 -0.010440
v -0.395358 0.532747 -0.010440
v -0.356772 0.532747 -0.010440
v 0.356772 0.532747 -0.010440
v 0.395358 0.532747 -0.010440
v -0.395358 0.811947 -0.010440
v -0.356772 0.811947 -0.010440
v 0.356772 0.811947 -0.010440
v 0.395358 0.811947 -0.010440
v -0.395358 0.839763 -0.010440
v -0.356772 0.839763 -0.010440
v 0.356772 0.839763 -0.010440
v 0.395358 0.839763 -0.010440
v -0.395358 0.000000 0.047445
v -0.356772 0.000000 0.047445
v -0.356771 0.294616 0.047445
v -0.395358 0.294616 0.047445
v 0.356772 0.000000 0.047445
v 0.395358 0.000000 0.047445
v 0.395358 0.294616 0.047445
v 0.356771 0.294616 0.047445
v -0.356772 0.532747 0.047445
v -0.395358 0.532747 0.047445
v 0.395358 0.532747 0.047445
v 0.356772 0.532747 0.047445
v -0.356772 0.811947 0.047445
v -0.395358 0.811947 0.047445
v 0.395358 0.811947 0.047445
v 0.356772 0.811947 0.047445
v -0.356772 0.839763 0.047445
v -0.395358 0.839763 0.047445
v 0.356772 0.839763 0.047445
v 0.395358 0.839763 0.047445
v -0.219962 0.787343 0.019458
v 0.219962 0.787343 0.019458
v -0.219962 0.813825 0.019458
v 0.219962 0.813825 0.019458
v -0.219962 0.813825 -0.003388
v 0.219962 0.813825 -0.003388
v -0.219962 0.787343 -0.003388
v 0.219962 0.787343 -0.003388
v -0.219962 0.583726 0.019458
v 0.219962 0.583726 0.019458
v -0.219962 0.610208 0.019458
v 0.219962 0.610208 0.019458
v -0.219962 0.610208 -0.003388
v 0.219962 0.610208 -0.003388
v -0.219962 0.583726 -0.003388
v 0.219962 0.583726 -0.003388
vt 0.375000 0.000000
vt 0.625000 0.000000
vt 0.375000 0.250000
vt 0.625000 0.250000
vt 0.375000 0.500000
vt 0.625000 0.500000
vt 0.375000 0.750000
vt 0.625000 0.750000
vt 0.375000 1.000000
vt 0.625000 1.000000
vt 0.875000 0.000000
vt 0.875000 0.250000
vt 0.125000 0.000000
vt 0.125000 0.250000
vt 0.625000 0.000000
vt 0.875000 0.000000
vt 0.875000 0.250000
vt 0.625000 0.250000
vt 0.125000 0.000000
vt 0.375000 0.000000
vt 0.375000 0.250000
vt 0.125000 0.250000
vt 0.875000 0.250000
vt 0.625000 0.250000
vt 0.625000 0.250000
vt 0.875000 0.250000
vt 0.375000 0.250000
vt 0.125000 0.250000
vt 0.125000 0.250000
vt 0.375000 0.250000
vt 0.497749 0.250000
vt 0.497749 0.500000
vt 0.497749 0.750000
vt 0.497749 0.000000
vt 0.497749 1.000000
vt 0.487680 0.250000
vt 0.487680 0.500000
vt 0.487680 0.750000
vt 0.487680 0.000000
vt 0.487680 1.000000
vt 0.508188 0.250000
vt 0.508188 0.500000
vt 0.508188 0.750000
vt 0.508188 0.000000
vt 0.508188 1.000000
vt 0.497749 0.250000
vt 0.508188 0.250000
vt 0.508188 0.500000
vt 0.497749 0.500000
vt 0.487680 0.250000
vt 0.487680 0.500000
vt 0.200000 0.000000
vt 0.400000 0.000000
vt 0.400000 0.200000
vt 0.200000 0.200000
vt 0.600000 0.000000
vt 0.800000 0.000000
vt 0.800000 0.200000
vt 0.600000 0.200000
vt 0.400000 0.400000
vt 0.200000 0.400000
vt 0.800000 0.400000
vt 0.600000 0.400000
vt 0.400000 0.600000
vt 0.200000 0.600000
vt 0.800000 0.600000
vt 0.600000 0.600000
vt 0.400000 0.800000
vt 0.200000 0.800000
vt 0.600000 0.800000
vt 0.800000 0.800000
vt 0.200000 0.000000
vt 0.200000 0.200000
vt 0.400000 0.200000
vt 0.400000 0.000000
vt 0.600000 0.000000
vt 0.600000 0.200000
vt 0.800000 0.200000
vt 0.800000 0.000000
vt 0.200000 0.400000
vt 0.400000 0.400000
vt 0.600000 0.400000
vt 0.800000 0.400000
vt 0.200000 0.600000
vt 0.400000 0.600000
vt 0.600000 0.600000
vt 0.800000 0.600000
vt 0.200000 0.800000
vt 0.400000 0.800000
vt 0.600000 0.800000
vt 0.800000 0.800000
vt 0.200000 0.000000
vt 0.400000 0.000000
vt 0.400000 0.200000
vt 0.200000 0.200000
vt 0.600000 0.000000
vt 0.800000 0.000000
vt 0.800000 0.200000
vt 0.600000 0.200000
vt 0.400000 0.400000
vt 0.200000 0.400000
vt 0.800000 0.400000
vt 0.600000 0.400000
vt 0.400000 0.600000
vt 0.200000 0.600000
vt 0.800000 0.600000
vt 0.600000 0.600000
vt 0.400000 0.800000
vt 0.200000 0.800000
vt 0.600000 0.800000
vt 0.800000 0.800000
vt 0.375000 0.000000
vt 0.625000 0.000000
vt 0.625000 0.250000
vt 0.375000 0.250000
vt 0.625000 0.500000
vt 0.375000 0.500000
vt 0.625000 0.750000
vt 0.375000 0.750000
vt 0.625000 1.000000
vt 0.375000 1.000000
vt 0.875000 0.000000
vt 0.875000 0.250000
vt 0.125000 0.000000
vt 0.125000 0.250000
vt 0.375000 0.000000
vt 0.625000 0.000000
vt 0.625000 0.250000
vt 0.375000 0.250000
vt 0.625000 0.500000
vt 0.375000 0.500000
vt 0.625000 0.750000
vt 0.375000 0.750000
vt 0.625000 1.000000
vt 0.375000 1.000000
vt 0.875000 0.000000
vt 0.875000 0.250000
vt 0.125000 0.000000
vt 0.125000 0.250000
vn 0.000000 0.000000 1.000000
vn 0.000000 0.000000 1.000000
vn 0.000000 0.004593 0.999989
vn 0.000000 0.000598 1.000000
vn 0.000000 1.000000 0.000000
vn 0.000000 1.000000 0.000000
vn 0.000000 1.000000 0.000000
vn 0.000000 1.000000 0.000000
vn 0.000000 0.000598 -1.000000
vn 0.000000 0.004593 -0.999989
vn 0.000000 0.000000 -1.000000
vn 0.000000 0.000000 -1.000000
vn 0.000000 -1.000000 0.000000
vn 0.000000 -1.000000 0.000000
vn 0.000000 -1.000000 0.000000
vn 0.000000 -1.000000 0.000000
vn 1.000000 0.000000 0.000000
vn 1.000000 0.000000 0.000000
vn 1.000000 0.000478 0.000000
vn 1.000000 0.000478 0.000000
vn -1.000000 0.000000 0.000000
vn -1.000000 0.000000 0.000000
vn -1.000000 0.000478 0.000000
vn -1.000000 0.000478 0.000000
vn 0.000000 -1.000000 0.000000
vn 0.000000 -1.000000 0.000000
vn 0.000000 -1.000000 0.000000
vn 0.000000 -1.000000 0.000000
vn 0.000000 0.000000 -1.000000
vn 0.000000 0.000598 -1.000000
vn 0.000000 0.000747 -1.000000
vn 0.000000 0.000000 -1.000000
vn 0.000000 1.000000 0.000000
vn 0.000000 1.000000 0.000000
vn 0.000000 1.000000 0.000000
vn 0.000000 1.000000 0.000000
vn 0.000000 0.000598 1.000000
vn 0.000000 0.000000 1.000000
vn 0.000000 0.000000 1.000000
vn 0.000000 0.000747 1.000000
vn 0.000000 -1.000000 0.000000
vn 0.000000 -1.000000 0.000000
vn 0.000000 0.000747 1.000000
vn 0.000000 0.000000 1.000000
vn 0.000000 1.000000 0.000000
vn 0.000000 1.000000 0.000000
vn 0.000000 1.000000 0.000000
vn 0.000000 1.000000 0.000000
vn 0.000000 0.000000 -1.000000
vn 0.000000 0.000747 -1.000000
vn -1.000000 0.000494 0.000000
vn -1.000000 0.000494 0.000000
vn -1.000000 0.000494 0.000000
vn -1.000000 0.000494 0.000000
vn 0.000000 0.000772 1.000000
vn 0.000000 0.000772 1.000000
vn 1.000000 0.000494 0.000000
vn 1.000000 0.000494 0.000000
vn 0.000000 0.000772 -1.000000
vn 0.000000 0.000772 -1.000000
vn 1.000000 0.000494 0.000000
vn 1.000000 0.000494 0.000000
vn 1.000000 0.000494 0.000000
vn 1.000000 0.000494 0.000000
vn 0.000000 0.000772 -1.000000
vn 0.000000 0.000772 -1.000000
vn -1.000000 0.000494 0.000000
vn -1.000000 0.000494 0.000000
vn 0.000000 0.000772 1.000000
vn 0.000000 0.000772 1.000000
vn 0.000000 1.000000 0.000000
vn 0.000000 1.000000 0.000000
vn 0.000000 1.000000 0.000000
vn 0.000000 1.000000 0.000000
vn 0.000000 0.000000 -1.000000
vn 0.000000 0.006341 -0.999980
vn 0.000000 0.004593 -0.999990
vn 0.000000 0.000000 -1.000000
vn 0.000000 -1.000000 0.000000
vn 0.000000 -1.000000 0.000000
vn 0.000000 -1.000000 0.000000
vn 0.000000 -1.000000 0.000000
vn 0.000000 0.006341 0.999980
vn 0.000000 0.000000 1.000000
vn 0.000000 0.000000 1.000000
vn 0.000000 0.004593 0.999990
vn 0.000000 1.000000 0.000000
vn 0.000000 1.000000 0.000000
vn 0.000000 1.000000 0.000000
vn 0.000000 1.000000 0.000000
vn 0.000000 1.000000 0.000000
vn 0.000000 1.000000 0.000000
vn 0.000000 0.006564 0.999979
vn 0.000000 0.006564 0.999978
vn 0.999996 0.002908 0.000000
vn 0.999996 0.002908 0.000000
vn 0.999996 0.002908 0.000000
vn 0.999996 0.002908 0.000000
vn 0.000000 0.006564 -0.999978
vn 0.000000 0.006564 -0.999979
vn 0.000000 0.006564 0.999979
vn 0.000000 0.006564 -0.999979
vn -0.999996 0.002905 0.000000
vn -0.999996 0.002905 0.000000
vn -0.999996 0.002905 0.000000
vn -0.999996 0.002905 0.000000
vn 0.000000 0.000000 1.000000
vn 0.000000 0.000000 1.000000
vn 0.000000 0.000000 1.000000
vn 0.000000 0.000000 1.000000
vn 0.000000 0.000000 1.000000
vn 0.000000 0.000000 1.000000
vn 0.000000 0.000000 1.000000
vn 0.000000 0.000000 1.000000
vn 0.000000 0.000000 1.000000
vn 0.000000 0.000000 1.000000
vn 0.000000 0.000000 1.000000
vn 0.000000 0.000000 1.000000
vn 0.000000 0.000000 1.000000
vn 0.000000 0.000000 1.000000
vn 0.000000 0.000000 1.000000
vn 0.000000 0.000000 1.000000
vn 0.000000 0.000000 1.000000
vn 0.000000 0.000000 1.000000
vn 0.000000 0.000000 1.000000
vn 0.000000 0.000000 1.000000
vn 0.000000 0.000000 -1.000000
vn 0.000000 0.000000 -1.000000
vn 0.000000 0.000000 -1.000000
vn 0.000000 0.000000 -1.000000
vn 0.000000 0.000000 -1.000000
vn 0.000000 0.000000 -1.000000
vn 0.000000 0.000000 -1.000000
vn 0.000000 0.000000 -1.000000
vn 0.000000 0.000000 -1.000000
vn 0.000000 0.000000 -1.000000
vn 0.000000 0.000000 -1.000000
vn 0.000000 0.000000 -1.000000
vn 0.000000 0.000000 -1.000000
vn 0.000000 0.000000 -1.000000
vn 0.000000 0.000000 -1.000000
vn 0.000000 0.000000 -1.000000
vn 0.000000 0.000000 -1.000000
vn 0.000000 0.000000 -1.000000
vn 0.000000 0.000000 -1.000000
vn 0.000000 0.000000 -1.000000
vn 0.000000 -1.000000 0.000000
vn 0.000000 -1.000000 0.000000
vn 0.000000 -1.000000 0.000000
vn 0.000000 -1.000000 0.000000
vn 1.000000 -0.000001 0.000000
vn 1.000000 0.000000 0.000000
vn 1.000000 0.000000 0.000000
vn 1.000000 -0.000001 0.000000
vn -1.000000 0.000000 0.000000
vn -1.000000 0.000000 0.000000
vn -1.000000 0.000000 0.000000
vn -1.000000 0.000000 0.000000
vn 0.000000 -1.000000 0.000000
vn 0.000000 -1.000000 0.000000
vn 0.000000 -1.000000 0.000000
vn 0.000000 -1.000000 0.000000
vn 1.000000 0.000000 0.000000
vn 1.000000 0.000000 0.000000
vn 1.000000 0.000000 0.000000
vn 1.000000 0.000000 0.000000
vn -1.000000 0.000000 0.000000
vn -1.000000 -0.000001 0.000000
vn -1.000000 -0.000001 0.000000
vn -1.000000 0.000000 0.000000
vn 1.000000 0.000000 0.000000
vn 1.000000 0.000000 0.000000
vn -1.000000 0.000000 0.000000
vn -1.000000 0.000000 0.000000
vn 1.000000 0.000000 0.000000
vn 1.000000 0.000000 0.000000
vn -1.000000 0.000001 0.000000
vn -1.000000 0.000001 0.000000
vn 1.000000 0.000000 0.000000
vn 1.000000 0.000000 0.000000
vn -1.000000 0.000000 0.000000
vn -1.000000 0.000000 0.000000
vn 1.000000 0.000000 0.000000
vn 1.000000 0.000000 0.000000
vn -1.000000 0.000000 0.000000
vn -1.000000 0.000000 0.000000
vn 0.000000 1.000000 0.000000
vn 0.000000 1.000000 0.000000
vn 0.000000 1.000000 0.000000
vn 0.000000 1.000000 0.000000
vn -1.000000 0.000000 0.000000
vn -1.000000 0.000000 0.000000
vn 0.000000 -1.000000 0.000000
vn 0.000000 -1.000000 0.000000
vn 0.000000 -1.000000 0.000000
vn 0.000000 -1.000000 0.000000
vn 0.000000 1.000000 0.000000
vn 0.000000 1.000000 0.000000
vn 1.000000 0.000000 0.000000
vn 1.000000 0.000000 0.000000
vn 0.000000 1.000000 0.000000
vn 0.000000 1.000000 0.000000
vn 0.000000 0.000000 1.000000
vn 0.000000 0.000000 1.000000
vn 0.000000 0.000000 1.000000
vn 0.000000 0.000000 1.000000
vn 0.000000 1.000000 0.000000
vn 0.000000 1.000000 0.000000
vn 0.000000 1.000000 0.000000
vn 0.000000 1.000000 0.000000
vn 0.000000 0.000000 -1.000000
vn 0.000000 0.000000 -1.000000
vn 0.000000 0.000000 -1.000000
vn 0.000000 0.000000 -1.000000
vn 0.000000 -1.000000 0.000000
vn 0.000000 -1.000000 0.000000
vn 0.000000 -1.000000 0.000000
vn 0.000000 -1.000000 0.000000
vn 1.000000 0.000000 0.000000
vn 1.000000 0.000000 0.000000
vn 1.000000 0.000000 0.000000
vn 1.000000 0.000000 0.000000
vn -1.000000 0.000000 0.000000
vn -1.000000 0.000000 0.000000
vn -1.000000 0.000000 0.000000
vn -1.000000 0.000000 0.000000
vn 0.000000 0.000000 1.000000
vn 0.000000 0.000000 1.000000
vn 0.000000 0.000000 1.000000
vn 0.000000 0.000000 1.000000
vn 0.000000 1.000000 0.000000
vn 0.000000 1.000000 0.000000
vn 0.000000 1.000000 0.000000
vn 0.000000 1.000000 0.000000
vn 0.000000 0.000000 -1.000000
vn 0.000000 0.000000 -1.000000
vn 0.000000 0.000000 -1.000000
vn 0.000000 0.000000 -1.000000
vn 0.000000 -1.000000 0.000000
vn 0.000000 -1.000000 0.000000
vn 0.000000 -1.000000 0.000000
vn 0.000000 -1.000000 0.000000
vn 1.000000 0.000000 0.000000
vn 1.000000 0.000000 0.000000
vn 1.000000 0.000000 0.000000
vn 1.000000 0.000000 0.000000
vn -1.000000 0.000000 0.000000
vn -1.000000 0.000000 0.000000
vn -1.000000 0.000000 0.000000
vn -1.000000 0.000000 0.000000
s 1
g pCube4
usemtl initialShadingGroup
f 1/1/1 32/39/2 29/36/3 3/3/4
s off
f 3/3/5 29/36/6 30/37/7 5/5/8
s 2
f 5/5/9 30/37/10 31/38/11 7/7/12
s 3
f 7/7/13 31/38/14 32/40/15 1/9/16
s 4
f 10/15/17 9/16/18 11/17/19 12/18/20
s 5
f 13/19/21 14/20/22 15/21/23 16/22/24
s 3
f 2/2/25 8/11/26 9/16/27 10/15/28
s 2
f 8/11/29 6/12/30 11/17/31 9/16/32
s off
f 18/23/33 17/24/34 19/25/35 20/26/36
s 1
f 4/4/37 2/2/38 10/15/39 12/18/40
s 3
f 7/13/13 1/1/16 14/20/41 13/19/42
s 1
f 1/1/1 3/3/4 15/21/43 14/20/44
s off
f 21/27/45 22/28/46 23/29/47 24/30/48
s 2
f 5/14/9 7/13/12 13/19/49 16/22/50
s off
f 6/12/51 4/4/52 17/24/53 18/23/54
s 1
f 4/4/37 12/18/40 19/25/55 17/24/56
s 4
f 12/18/20 11/17/19 20/26/57 19/25/58
s 2
f 11/17/31 6/12/30 18/23/59 20/26/60
s off
f 3/3/61 5/14/62 22/28/63 21/27/64
s 2
f 5/14/9 16/22/50 23/29/65 22/28/66
s 5
f 16/22/24 15/21/23 24/30/67 23/29/68
s 1
f 15/21/43 3/3/4 21/27/69 24/30/70
s 9
f 37/46/71 38/47/72 39/48/73 40/49/74
s 2
f 27/33/75 26/32/76 34/42/77 35/43/78
s 3
f 28/35/79 27/33/80 35/43/81 36/45/82
s 1
f 25/31/83 28/34/84 36/44/85 33/41/86
s 9
f 41/50/87 37/46/71 40/49/74 42/51/88
s 2
f 31/38/11 30/37/10 26/32/76 27/33/75
s 3
f 32/40/15 31/38/14 27/33/80 28/35/79
s 1
f 29/36/3 32/39/2 28/34/84 25/31/83
s off
f 33/41/89 4/4/90 6/6/91 34/42/92
s 2
f 35/43/78 34/42/77 6/6/30 8/8/29
s 3
f 36/45/82 35/43/81 8/8/26 2/10/25
s 1
f 33/41/86 36/44/85 2/2/38 4/4/37
f 25/31/83 33/41/86 38/47/93 37/46/94
s off
f 33/41/95 34/42/96 39/48/97 38/47/98
s 2
f 34/42/77 26/32/76 40/49/99 39/48/100
s 1
f 29/36/3 25/31/83 37/46/94 41/50/101
s 2
f 26/32/76 30/37/10 42/51/102 40/49/99
s off
f 30/37/103 29/36/104 41/50/105 42/51/106
s 10
f 63/52/107 64/53/108 65/54/109 66/55/110
f 67/56/111 68/57/112 69/58/113 70/59/114
f 66/55/110 65/54/109 71/60/115 72/61/116
f 70/59/114 69/58/113 73/62/117 74/63/118
f 72/61/116 71/60/115 75/64/119 76/65/120
f 74/63/118 73/62/117 77/66/121 78/67/122
f 76/65/120 75/64/119 79/68/123 80/69/124
f 75/64/119 78/67/122 81/70/125 79/68/123
f 78/67/122 77/66/121 82/71/126 81/70/125
s 12
f 43/72/127 47/73/128 48/74/129 44/75/130
f 45/76/131 49/77/132 50/78/133 46/79/134
f 47/73/128 51/80/135 52/81/136 48/74/129
f 49/77/132 53/82/137 54/83/138 50/78/133
f 51/80/135 55/84/139 56/85/140 52/81/136
f 53/82/137 57/86/141 58/87/142 54/83/138
f 55/84/139 59/88/143 60/89/144 56/85/140
f 56/85/140 60/89/144 61/90/145 57/86/141
f 57/86/141 61/90/145 62/91/146 58/87/142
s off
f 43/92/147 44/93/148 64/53/149 63/52/150
s 14
f 44/93/151 48/94/152 65/54/153 64/53/154
s 15
f 47/95/155 43/92/156 63/52/157 66/55/158
s off
f 45/96/159 46/97/160 68/57/161 67/56/162
s 16
f 46/97/163 50/98/164 69/58/165 68/57/166
s 17
f 49/99/167 45/96/168 67/56/169 70/59/170
s 14
f 48/94/152 52/100/171 71/60/172 65/54/153
s 15
f 51/101/173 47/95/155 66/55/158 72/61/174
s 16
f 50/98/164 54/102/175 73/62/176 69/58/165
s 17
f 53/103/177 49/99/167 70/59/170 74/63/178
s 14
f 52/100/171 56/104/179 75/64/180 71/60/172
s 15
f 55/105/181 51/101/173 72/61/174 76/65/182
s 16
f 54/102/175 58/106/183 77/66/184 73/62/176
s 17
f 57/107/185 53/103/177 74/63/178 78/67/186
s 18
f 60/108/187 59/109/188 80/69/189 79/68/190
s 15
f 59/109/191 55/105/181 76/65/182 80/69/192
s off
f 56/104/193 57/107/194 78/67/195 75/64/196
s 18
f 61/110/197 60/108/187 79/68/190 81/70/198
s 16
f 58/106/183 62/111/199 82/71/200 77/66/184
s 18
f 62/111/201 61/110/197 81/70/198 82/71/202
s off
f 83/112/203 84/113/204 86/114/205 85/115/206
f 85/115/207 86/114/208 88/116/209 87/117/210
f 87/117/211 88/116/212 90/118/213 89/119/214
f 89/119/215 90/118/216 84/120/217 83/121/218
f 84/113/219 90/122/220 88/123/221 86/114/222
f 89/124/223 83/112/224 85/115/225 87/125/226
f 91/126/227 92/127/228 94/128/229 93/129/230
f 93/129/231 94/128/232 96/130/233 95/131/234
f 95/131/235 96/130/236 98/132/237 97/133/238
f 97/133/239 98/132/240 92/134/241 91/135/242
f 92/127/243 98/136/244 96/137/245 94/128/246
f 97/138/247 91/126/248 93/129/249 95/139/250
