# This file uses centimeters as units for non-parametric coordinates.

mtllib box1round.mtl
g default
v -0.500000 0.000000 0.500000
v 0.500000 0.000000 0.500000
v -0.500000 0.917848 0.500000
v 0.500000 0.917848 0.500000
v -0.500000 0.917848 -0.500605
v 0.500000 0.917848 -0.500605
v -0.500000 0.000000 -0.500605
v 0.500000 0.000000 -0.500605
v 0.436712 1.000000 0.436712
v -0.436712 1.000000 0.436712
v 0.436712 1.000000 -0.500605
v -0.436712 1.000000 -0.500605
v 0.485368 0.964250 0.485368
v -0.485368 0.964250 0.485368
v -0.485368 0.964250 -0.500605
v 0.485368 0.964250 -0.500605
v -0.456759 0.990679 0.456759
v -0.456759 0.990679 -0.500605
v 0.456759 0.990679 -0.500605
v 0.456759 0.990679 0.456759
vt 0.375000 0.000000
vt 0.625000 0.000000
vt 0.625000 0.250000
vt 0.375000 0.250000
vt 0.625000 0.500000
vt 0.375000 0.500000
vt 0.625000 0.750000
vt 0.375000 0.750000
vt 0.625000 1.000000
vt 0.375000 1.000000
vt 0.875000 0.000000
vt 0.875000 0.250000
vt 0.125000 0.000000
vt 0.125000 0.250000
vt 0.375000 0.250000
vt 0.625000 0.250000
vt 0.625000 0.500000
vt 0.375000 0.500000
vt 0.625000 0.250000
vt 0.375000 0.250000
vt 0.375000 0.500000
vt 0.625000 0.500000
vt 0.375000 0.250000
vt 0.375000 0.500000
vt 0.625000 0.500000
vt 0.625000 0.250000
vn 0.000000 0.000000 1.000000
vn 0.000000 0.000000 1.000000
vn 0.000000 0.000000 1.000000
vn 0.000000 0.000000 1.000000
vn 0.000000 1.000000 0.000000
vn 0.000000 1.000000 0.000000
vn 0.000000 1.000000 0.000000
vn 0.000000 1.000000 0.000000
vn 0.000000 0.000000 -1.000000
vn 0.000000 0.000000 -1.000000
vn 0.000000 0.000000 -1.000000
vn 0.000000 0.000000 -1.000000
vn 0.000000 -1.000000 0.000000
vn 0.000000 -1.000000 0.000000
vn 0.000000 -1.000000 0.000000
vn 0.000000 -1.000000 0.000000
vn 1.000000 0.000000 0.000000
vn 1.000000 0.000000 0.000000
vn 1.000000 0.000000 0.000000
vn 1.000000 0.000000 0.000000
vn -1.000000 0.000000 0.000000
vn -1.000000 0.000000 0.000000
vn -1.000000 0.000000 0.000000
vn -1.000000 0.000000 0.000000
vn -0.648383 0.407279 0.643213
vn 0.648383 0.407280 0.643213
vn 0.588129 0.563085 0.580551
vn -0.588129 0.563085 0.580551
vn 0.758531 0.239188 -0.606152
vn 0.673469 0.397228 -0.623417
vn -0.758531 0.239188 -0.606152
vn -0.673469 0.397228 -0.623417
vn 0.364162 0.862262 0.351981
vn -0.364162 0.862262 0.351981
vn -0.487901 0.661507 -0.569526
vn 0.487901 0.661507 -0.569526
s off
g box1:pCube1
usemtl box1:initialShadingGroup
f 1/1/1 2/2/2 4/3/3 3/4/4
s 1
f 10/15/5 9/16/6 11/17/7 12/18/8
s off
f 5/6/9 6/5/10 8/7/11 7/8/12
f 7/8/13 8/7/14 2/9/15 1/10/16
f 2/2/17 8/11/18 6/12/19 4/3/20
f 7/13/21 1/1/22 3/4/23 5/14/24
s 1
f 3/4/25 4/3/26 13/19/27 14/20/28
f 4/3/26 6/5/29 16/22/30 13/19/27
f 6/5/29 5/6/31 15/21/32 16/22/30
f 5/6/31 3/4/25 14/20/28 15/21/32
f 14/20/28 13/19/27 20/26/33 17/23/34
f 15/21/32 14/20/28 17/23/34 18/24/35
f 16/22/30 15/21/32 18/24/35 19/25/36
f 13/19/27 16/22/30 19/25/36 20/26/33
f 18/24/35 17/23/34 10/15/5 12/18/8
f 19/25/36 18/24/35 12/18/8 11/17/7
f 20/26/33 19/25/36 11/17/7 9/16/6
f 17/23/34 20/26/33 9/16/6 10/15/5
