# This file uses centimeters as units for non-parametric coordinates.

mtllib door.mtl
g default
v -0.200424 0.000990 0.014682
v 0.200424 0.000990 0.014682
v -0.200424 0.027161 0.014682
v 0.200424 0.027161 0.014682
v -0.200424 0.027161 -0.047860
v 0.200424 0.027161 -0.047860
v -0.200424 0.000990 -0.047860
v 0.200424 0.000990 -0.047860
v 0.224159 0.000990 -0.047860
v 0.224159 0.000990 0.014682
v 0.224159 0.027161 -0.047860
v 0.224159 0.027161 0.014682
v -0.224159 0.000990 -0.047860
v -0.224159 0.000990 0.014682
v -0.224159 0.027161 0.014682
v -0.224159 0.027161 -0.047860
v 0.200820 0.828442 0.013641
v 0.200820 0.828442 -0.046817
v 0.223764 0.828442 0.013641
v 0.223764 0.828442 -0.046817
v -0.200820 0.828442 0.013641
v -0.200820 0.828442 -0.046817
v -0.223764 0.828442 -0.046817
v -0.223764 0.828442 0.013641
v -0.000108 0.027161 0.014682
v -0.000108 0.027161 -0.047860
v -0.000108 0.000990 -0.047860
v -0.000108 0.000990 0.014682
v -0.016540 0.027161 0.014682
v -0.016540 0.027161 -0.047860
v -0.016540 0.000990 -0.047860
v -0.016540 0.000990 0.014682
v 0.016342 0.027161 0.014682
v 0.016342 0.027161 -0.047860
v 0.016342 0.000990 -0.047860
v 0.016342 0.000990 0.014682
v -0.000107 0.828442 0.005822
v 0.014012 0.828442 0.005822
v 0.014012 0.828442 -0.038999
v -0.000107 0.828442 -0.038999
v -0.014212 0.828442 0.005822
v -0.014212 0.828442 -0.038999
v -0.395358 0.000000 -0.035334
v -0.356772 0.000000 -0.035334
v 0.356772 0.000000 -0.035334
v 0.395358 0.000000 -0.035334
v -0.395358 0.294616 -0.035334
v -0.356771 0.294616 -0.035334
v 0.356771 0.294616 -0.035334
v 0.395358 0.294616 -0.035334
v -0.395358 0.532747 -0.035334
v -0.356772 0.532747 -0.035334
v 0.356772 0.532747 -0.035334
v 0.395358 0.532747 -0.035334
v -0.395358 0.811947 -0.035334
v -0.356772 0.811947 -0.035334
v 0.356772 0.811947 -0.035334
v 0.395358 0.811947 -0.035334
v -0.395358 0.839763 -0.035334
v -0.356772 0.839763 -0.035334
v 0.356772 0.839763 -0.035334
v 0.395358 0.839763 -0.035334
v -0.395358 0.000000 0.062171
v -0.356772 0.000000 0.062171
v -0.356771 0.294616 0.062171
v -0.395358 0.294616 0.062171
v 0.356772 0.000000 0.062171
v 0.395358 0.000000 0.062171
v 0.395358 0.294616 0.062171
v 0.356771 0.294616 0.062171
v -0.356772 0.532747 0.062171
v -0.395358 0.532747 0.062171
v 0.395358 0.532747 0.062171
v 0.356772 0.532747 0.062171
v -0.356772 0.811947 0.062171
v -0.395358 0.811947 0.062171
v 0.395358 0.811947 0.062171
v 0.356772 0.811947 0.062171
v -0.356772 0.839763 0.062171
v -0.395358 0.839763 0.062171
v 0.356772 0.839763 0.062171
v 0.395358 0.839763 0.062171
v -0.219962 0.787343 0.015028
v 0.219962 0.787343 0.015028
v -0.219962 0.813825 0.015028
v 0.219962 0.813825 0.015028
v -0.219962 0.813825 -0.023455
v 0.219962 0.813825 -0.023455
v -0.219962 0.787343 -0.023455
v 0.219962 0.787343 -0.023455
v -0.219962 0.583726 0.015028
v 0.219962 0.583726 0.015028
v -0.219962 0.610208 0.015028
v 0.219962 0.610208 0.015028
v -0.219962 0.610208 -0.023455
v 0.219962 0.610208 -0.023455
v -0.219962 0.583726 -0.023455
v 0.219962 0.583726 -0.023455
vt 0.375000 0.000000
vt 0.487680 0.000000
vt 0.487680 0.250000
vt 0.375000 0.250000
vt 0.487680 0.500000
vt 0.375000 0.500000
vt 0.487680 0.750000
vt 0.375000 0.750000
vt 0.487680 1.000000
vt 0.375000 1.000000
vt 0.625000 0.000000
vt 0.875000 0.000000
vt 0.875000 0.250000
vt 0.625000 0.250000
vt 0.125000 0.000000
vt 0.375000 0.000000
vt 0.375000 0.250000
vt 0.125000 0.250000
vt 0.625000 0.000000
vt 0.875000 0.000000
vt 0.875000 0.250000
vt 0.875000 0.250000
vt 0.625000 0.250000
vt 0.625000 0.250000
vt 0.875000 0.250000
vt 0.625000 0.250000
vt 0.125000 0.000000
vt 0.375000 0.250000
vt 0.125000 0.250000
vt 0.125000 0.250000
vt 0.375000 0.250000
vt 0.125000 0.250000
vt 0.497749 0.250000
vt 0.508188 0.250000
vt 0.508188 0.500000
vt 0.497749 0.500000
vt 0.497749 0.750000
vt 0.497749 0.500000
vt 0.508188 0.500000
vt 0.508188 0.750000
vt 0.497749 1.000000
vt 0.508188 1.000000
vt 0.497749 0.250000
vt 0.497749 0.000000
vt 0.508188 0.000000
vt 0.508188 0.250000
vt 0.487680 0.250000
vt 0.487680 0.500000
vt 0.625000 0.500000
vt 0.625000 0.750000
vt 0.625000 1.000000
vt 0.200000 0.000000
vt 0.400000 0.000000
vt 0.400000 0.200000
vt 0.200000 0.200000
vt 0.600000 0.000000
vt 0.800000 0.000000
vt 0.800000 0.200000
vt 0.600000 0.200000
vt 0.400000 0.400000
vt 0.200000 0.400000
vt 0.800000 0.400000
vt 0.600000 0.400000
vt 0.400000 0.600000
vt 0.200000 0.600000
vt 0.800000 0.600000
vt 0.600000 0.600000
vt 0.400000 0.800000
vt 0.200000 0.800000
vt 0.600000 0.800000
vt 0.800000 0.800000
vt 0.200000 0.000000
vt 0.200000 0.200000
vt 0.400000 0.200000
vt 0.400000 0.000000
vt 0.600000 0.000000
vt 0.600000 0.200000
vt 0.800000 0.200000
vt 0.800000 0.000000
vt 0.200000 0.400000
vt 0.400000 0.400000
vt 0.600000 0.400000
vt 0.800000 0.400000
vt 0.200000 0.600000
vt 0.400000 0.600000
vt 0.600000 0.600000
vt 0.800000 0.600000
vt 0.200000 0.800000
vt 0.400000 0.800000
vt 0.600000 0.800000
vt 0.800000 0.800000
vt 0.200000 0.000000
vt 0.400000 0.000000
vt 0.400000 0.200000
vt 0.200000 0.200000
vt 0.600000 0.000000
vt 0.800000 0.000000
vt 0.800000 0.200000
vt 0.600000 0.200000
vt 0.400000 0.400000
vt 0.200000 0.400000
vt 0.800000 0.400000
vt 0.600000 0.400000
vt 0.400000 0.600000
vt 0.200000 0.600000
vt 0.800000 0.600000
vt 0.600000 0.600000
vt 0.400000 0.800000
vt 0.200000 0.800000
vt 0.600000 0.800000
vt 0.800000 0.800000
vt 0.375000 0.000000
vt 0.625000 0.000000
vt 0.625000 0.250000
vt 0.375000 0.250000
vt 0.625000 0.500000
vt 0.375000 0.500000
vt 0.625000 0.750000
vt 0.375000 0.750000
vt 0.625000 1.000000
vt 0.375000 1.000000
vt 0.875000 0.000000
vt 0.875000 0.250000
vt 0.125000 0.000000
vt 0.125000 0.250000
vt 0.375000 0.000000
vt 0.625000 0.000000
vt 0.625000 0.250000
vt 0.375000 0.250000
vt 0.625000 0.500000
vt 0.375000 0.500000
vt 0.625000 0.750000
vt 0.375000 0.750000
vt 0.625000 1.000000
vt 0.375000 1.000000
vt 0.875000 0.000000
vt 0.875000 0.250000
vt 0.125000 0.000000
vt 0.125000 0.250000
vn 0.000000 0.000000 1.000000
vn 0.000000 0.000000 1.000000
vn 0.000000 0.007737 0.999970
vn 0.000000 0.001007 1.000000
vn 0.000000 1.000000 0.000000
vn 0.000000 1.000000 0.000000
vn 0.000000 1.000000 0.000000
vn 0.000000 1.000000 0.000000
vn 0.000000 0.001007 -1.000000
vn 0.000000 0.007737 -0.999970
vn 0.000000 0.000000 -1.000000
vn 0.000000 0.000000 -1.000000
vn 0.000000 -1.000000 0.000000
vn 0.000000 -1.000000 0.000000
vn 0.000000 -1.000000 0.000000
vn 0.000000 -1.000000 0.000000
vn 1.000000 0.000000 0.000000
vn 1.000000 0.000000 0.000000
vn 1.000000 0.000478 0.000000
vn 1.000000 0.000478 0.000000
vn -1.000000 0.000000 0.000000
vn -1.000000 0.000000 0.000000
vn -1.000000 0.000478 0.000000
vn -1.000000 0.000478 0.000000
vn 0.000000 -1.000000 0.000000
vn 0.000000 -1.000000 0.000000
vn 0.000000 -1.000000 0.000000
vn 0.000000 -1.000000 0.000000
vn 0.000000 0.000000 -1.000000
vn 0.000000 0.001007 -1.000000
vn 0.000000 0.001258 -0.999999
vn 0.000000 0.000000 -1.000000
vn 0.000000 1.000000 0.000000
vn 0.000000 1.000000 0.000000
vn 0.000000 1.000000 0.000000
vn 0.000000 1.000000 0.000000
vn 0.000000 0.001007 1.000000
vn 0.000000 0.000000 1.000000
vn 0.000000 0.000000 1.000000
vn 0.000000 0.001258 0.999999
vn 0.000000 -1.000000 0.000000
vn 0.000000 -1.000000 0.000000
vn 0.000000 -1.000000 0.000000
vn 0.000000 -1.000000 0.000000
vn 0.000000 0.000000 1.000000
vn 0.000000 0.001007 1.000000
vn 0.000000 0.001258 0.999999
vn 0.000000 0.000000 1.000000
vn 0.000000 1.000000 0.000000
vn 0.000000 1.000000 0.000000
vn 0.000000 1.000000 0.000000
vn 0.000000 1.000000 0.000000
vn 0.000000 0.001007 -1.000000
vn 0.000000 0.000000 -1.000000
vn 0.000000 0.000000 -1.000000
vn 0.000000 0.001258 -0.999999
vn -1.000000 0.000494 0.000000
vn -1.000000 0.000494 0.000000
vn -1.000000 0.000494 0.000000
vn -1.000000 0.000494 0.000000
vn 0.000000 0.001007 1.000000
vn 0.000000 0.001258 0.999999
vn 0.000000 0.001300 0.999999
vn 0.000000 0.001300 0.999999
vn 1.000000 0.000478 0.000000
vn 1.000000 0.000478 0.000000
vn 1.000000 0.000494 0.000000
vn 1.000000 0.000494 0.000000
vn 0.000000 0.001258 -0.999999
vn 0.000000 0.001007 -1.000000
vn 0.000000 0.001300 -0.999999
vn 0.000000 0.001300 -0.999999
vn 1.000000 0.000494 0.000000
vn 1.000000 0.000494 0.000000
vn 1.000000 0.000494 0.000000
vn 1.000000 0.000494 0.000000
vn 0.000000 0.001007 -1.000000
vn 0.000000 0.001258 -0.999999
vn 0.000000 0.001300 -0.999999
vn 0.000000 0.001300 -0.999999
vn -1.000000 0.000478 0.000000
vn -1.000000 0.000478 0.000000
vn -1.000000 0.000494 0.000000
vn -1.000000 0.000494 0.000000
vn 0.000000 0.001258 0.999999
vn 0.000000 0.001007 1.000000
vn 0.000000 0.001300 0.999999
vn 0.000000 0.001300 0.999999
vn 0.000000 1.000000 0.000000
vn 0.000000 1.000000 0.000000
vn 0.000000 1.000000 0.000000
vn 0.000000 1.000000 0.000000
vn 0.000000 0.000000 -1.000000
vn 0.000000 0.010681 -0.999943
vn 0.000000 0.007737 -0.999970
vn 0.000000 0.000000 -1.000000
vn 0.000000 -1.000000 0.000000
vn 0.000000 -1.000000 0.000000
vn 0.000000 -1.000000 0.000000
vn 0.000000 -1.000000 0.000000
vn 0.000000 0.010681 0.999943
vn 0.000000 0.000000 1.000000
vn 0.000000 0.000000 1.000000
vn 0.000000 0.007737 0.999970
vn 0.000000 1.000000 0.000000
vn 0.000000 1.000000 0.000000
vn 0.000000 1.000000 0.000000
vn 0.000000 1.000000 0.000000
vn 0.000000 0.000000 -1.000000
vn 0.000000 0.007737 -0.999970
vn 0.000000 0.010681 -0.999943
vn 0.000000 0.000000 -1.000000
vn 0.000000 -1.000000 0.000000
vn 0.000000 -1.000000 0.000000
vn 0.000000 -1.000000 0.000000
vn 0.000000 -1.000000 0.000000
vn 0.000000 0.007737 0.999970
vn 0.000000 0.000000 1.000000
vn 0.000000 0.000000 1.000000
vn 0.000000 0.010681 0.999943
vn 0.000000 1.000000 0.000000
vn 0.000000 1.000000 0.000000
vn 0.000000 1.000000 0.000000
vn 0.000000 1.000000 0.000000
vn 0.000000 0.000000 -1.000000
vn 0.000000 0.007737 -0.999970
vn 0.000000 0.001007 -1.000000
vn 0.000000 0.000000 -1.000000
vn 0.000000 -1.000000 0.000000
vn 0.000000 -1.000000 0.000000
vn 0.000000 -1.000000 0.000000
vn 0.000000 -1.000000 0.000000
vn 0.000000 0.007737 0.999970
vn 0.000000 0.000000 1.000000
vn 0.000000 0.000000 1.000000
vn 0.000000 0.001007 1.000000
vn 0.000000 0.010681 0.999943
vn 0.000000 0.007737 0.999970
vn 0.000000 0.011056 0.999939
vn 0.000000 0.011056 0.999939
vn 0.999996 0.002908 0.000000
vn 0.999996 0.002908 0.000000
vn 0.999996 0.002908 0.000000
vn 0.999996 0.002908 0.000000
vn 0.000000 0.007737 -0.999970
vn 0.000000 0.010681 -0.999943
vn 0.000000 0.011056 -0.999939
vn 0.000000 0.011056 -0.999939
vn 0.000000 0.007737 0.999970
vn 0.000000 0.010681 0.999943
vn 0.000000 0.011056 0.999939
vn 0.000000 0.011056 0.999939
vn 0.000000 0.010681 -0.999943
vn 0.000000 0.007737 -0.999970
vn 0.000000 0.011056 -0.999939
vn 0.000000 0.011056 -0.999939
vn -0.999996 0.002905 0.000000
vn -0.999996 0.002905 0.000000
vn -0.999996 0.002905 0.000000
vn -0.999996 0.002905 0.000000
vn 0.000000 0.000000 1.000000
vn 0.000000 0.000000 1.000000
vn 0.000000 0.000000 1.000000
vn 0.000000 0.000000 1.000000
vn 0.000000 0.000000 1.000000
vn 0.000000 0.000000 1.000000
vn 0.000000 0.000000 1.000000
vn 0.000000 0.000000 1.000000
vn 0.000000 0.000000 1.000000
vn 0.000000 0.000000 1.000000
vn 0.000000 0.000000 1.000000
vn 0.000000 0.000000 1.000000
vn 0.000000 0.000000 1.000000
vn 0.000000 0.000000 1.000000
vn 0.000000 0.000000 1.000000
vn 0.000000 0.000000 1.000000
vn 0.000000 0.000000 1.000000
vn 0.000000 0.000000 1.000000
vn 0.000000 0.000000 1.000000
vn 0.000000 0.000000 1.000000
vn 0.000000 0.000000 1.000000
vn 0.000000 0.000000 1.000000
vn 0.000000 0.000000 1.000000
vn 0.000000 0.000000 1.000000
vn 0.000000 0.000000 1.000000
vn 0.000000 0.000000 1.000000
vn 0.000000 0.000000 1.000000
vn 0.000000 0.000000 1.000000
vn 0.000000 0.000000 1.000000
vn 0.000000 0.000000 1.000000
vn 0.000000 0.000000 1.000000
vn 0.000000 0.000000 1.000000
vn 0.000000 0.000000 1.000000
vn 0.000000 0.000000 1.000000
vn 0.000000 0.000000 1.000000
vn 0.000000 0.000000 1.000000
vn 0.000000 0.000000 -1.000000
vn 0.000000 0.000000 -1.000000
vn 0.000000 0.000000 -1.000000
vn 0.000000 0.000000 -1.000000
vn 0.000000 0.000000 -1.000000
vn 0.000000 0.000000 -1.000000
vn 0.000000 0.000000 -1.000000
vn 0.000000 0.000000 -1.000000
vn 0.000000 0.000000 -1.000000
vn 0.000000 0.000000 -1.000000
vn 0.000000 0.000000 -1.000000
vn 0.000000 0.000000 -1.000000
vn 0.000000 0.000000 -1.000000
vn 0.000000 0.000000 -1.000000
vn 0.000000 0.000000 -1.000000
vn 0.000000 0.000000 -1.000000
vn 0.000000 0.000000 -1.000000
vn 0.000000 0.000000 -1.000000
vn 0.000000 0.000000 -1.000000
vn 0.000000 0.000000 -1.000000
vn 0.000000 0.000000 -1.000000
vn 0.000000 0.000000 -1.000000
vn 0.000000 0.000000 -1.000000
vn 0.000000 0.000000 -1.000000
vn 0.000000 0.000000 -1.000000
vn 0.000000 0.000000 -1.000000
vn 0.000000 0.000000 -1.000000
vn 0.000000 0.000000 -1.000000
vn 0.000000 0.000000 -1.000000
vn 0.000000 0.000000 -1.000000
vn 0.000000 0.000000 -1.000000
vn 0.000000 0.000000 -1.000000
vn 0.000000 0.000000 -1.000000
vn 0.000000 0.000000 -1.000000
vn 0.000000 0.000000 -1.000000
vn 0.000000 0.000000 -1.000000
vn 0.000000 -1.000000 0.000000
vn 0.000000 -1.000000 0.000000
vn 0.000000 -1.000000 0.000000
vn 0.000000 -1.000000 0.000000
vn 1.000000 -0.000001 0.000000
vn 1.000000 0.000000 0.000000
vn 1.000000 0.000000 0.000000
vn 1.000000 -0.000001 0.000000
vn -1.000000 0.000000 0.000000
vn -1.000000 0.000000 0.000000
vn -1.000000 0.000000 0.000000
vn -1.000000 0.000000 0.000000
vn 0.000000 -1.000000 0.000000
vn 0.000000 -1.000000 0.000000
vn 0.000000 -1.000000 0.000000
vn 0.000000 -1.000000 0.000000
vn 1.000000 0.000000 0.000000
vn 1.000000 0.000000 0.000000
vn 1.000000 0.000000 0.000000
vn 1.000000 0.000000 0.000000
vn -1.000000 0.000000 0.000000
vn -1.000000 -0.000001 0.000000
vn -1.000000 -0.000001 0.000000
vn -1.000000 0.000000 0.000000
vn 1.000000 0.000000 0.000000
vn 1.000000 0.000000 0.000000
vn 1.000000 0.000000 0.000000
vn 1.000000 0.000000 0.000000
vn -1.000000 0.000000 0.000000
vn -1.000000 0.000000 0.000000
vn -1.000000 0.000000 0.000000
vn -1.000000 0.000000 0.000000
vn 1.000000 0.000000 0.000000
vn 1.000000 0.000000 0.000000
vn 1.000000 0.000000 0.000000
vn 1.000000 0.000000 0.000000
vn -1.000000 0.000001 0.000000
vn -1.000000 0.000000 0.000000
vn -1.000000 0.000000 0.000000
vn -1.000000 0.000001 0.000000
vn 1.000000 0.000000 0.000000
vn 1.000000 0.000000 0.000000
vn 1.000000 0.000000 0.000000
vn 1.000000 0.000000 0.000000
vn -1.000000 0.000000 0.000000
vn -1.000000 0.000000 0.000000
vn -1.000000 0.000000 0.000000
vn -1.000000 0.000000 0.000000
vn 1.000000 0.000000 0.000000
vn 1.000000 0.000000 0.000000
vn 1.000000 0.000000 0.000000
vn 1.000000 0.000000 0.000000
vn -1.000000 0.000000 0.000000
vn -1.000000 0.000001 0.000000
vn -1.000000 0.000001 0.000000
vn -1.000000 0.000000 0.000000
vn 0.000000 1.000000 0.000000
vn 0.000000 1.000000 0.000000
vn 0.000000 1.000000 0.000000
vn 0.000000 1.000000 0.000000
vn -1.000000 0.000000 0.000000
vn -1.000000 0.000000 0.000000
vn -1.000000 0.000000 0.000000
vn -1.000000 0.000000 0.000000
vn 0.000000 -1.000000 0.000000
vn 0.000000 -1.000000 0.000000
vn 0.000000 -1.000000 0.000000
vn 0.000000 -1.000000 0.000000
vn 0.000000 1.000000 0.000000
vn 0.000000 1.000000 0.000000
vn 0.000000 1.000000 0.000000
vn 0.000000 1.000000 0.000000
vn 1.000000 0.000000 0.000000
vn 1.000000 0.000000 0.000000
vn 1.000000 0.000000 0.000000
vn 1.000000 0.000000 0.000000
vn 0.000000 1.000000 0.000000
vn 0.000000 1.000000 0.000000
vn 0.000000 1.000000 0.000000
vn 0.000000 1.000000 0.000000
vn 0.000000 0.000000 1.000000
vn 0.000000 0.000000 1.000000
vn 0.000000 0.000000 1.000000
vn 0.000000 0.000000 1.000000
vn 0.000000 1.000000 0.000000
vn 0.000000 1.000000 0.000000
vn 0.000000 1.000000 0.000000
vn 0.000000 1.000000 0.000000
vn 0.000000 0.000000 -1.000000
vn 0.000000 0.000000 -1.000000
vn 0.000000 0.000000 -1.000000
vn 0.000000 0.000000 -1.000000
vn 0.000000 -1.000000 0.000000
vn 0.000000 -1.000000 0.000000
vn 0.000000 -1.000000 0.000000
vn 0.000000 -1.000000 0.000000
vn 1.000000 0.000000 0.000000
vn 1.000000 0.000000 0.000000
vn 1.000000 0.000000 0.000000
vn 1.000000 0.000000 0.000000
vn -1.000000 0.000000 0.000000
vn -1.000000 0.000000 0.000000
vn -1.000000 0.000000 0.000000
vn -1.000000 0.000000 0.000000
vn 0.000000 0.000000 1.000000
vn 0.000000 0.000000 1.000000
vn 0.000000 0.000000 1.000000
vn 0.000000 0.000000 1.000000
vn 0.000000 1.000000 0.000000
vn 0.000000 1.000000 0.000000
vn 0.000000 1.000000 0.000000
vn 0.000000 1.000000 0.000000
vn 0.000000 0.000000 -1.000000
vn 0.000000 0.000000 -1.000000
vn 0.000000 0.000000 -1.000000
vn 0.000000 0.000000 -1.000000
vn 0.000000 -1.000000 0.000000
vn 0.000000 -1.000000 0.000000
vn 0.000000 -1.000000 0.000000
vn 0.000000 -1.000000 0.000000
vn 1.000000 0.000000 0.000000
vn 1.000000 0.000000 0.000000
vn 1.000000 0.000000 0.000000
vn 1.000000 0.000000 0.000000
vn -1.000000 0.000000 0.000000
vn -1.000000 0.000000 0.000000
vn -1.000000 0.000000 0.000000
vn -1.000000 0.000000 0.000000
s off
g door:pCube4
usemtl door:initialShadingGroup
f 1/1/1 32/2/2 29/3/3 3/4/4
f 3/4/5 29/3/6 30/5/7 5/6/8
f 5/6/9 30/5/10 31/7/11 7/8/12
f 7/8/13 31/7/14 32/9/15 1/10/16
f 10/11/17 9/12/18 11/13/19 12/14/20
f 13/15/21 14/16/22 15/17/23 16/18/24
f 2/19/25 8/20/26 9/12/27 10/11/28
f 8/20/29 6/21/30 11/13/31 9/12/32
f 18/22/33 17/23/34 19/24/35 20/25/36
f 4/26/37 2/19/38 10/11/39 12/14/40
f 7/27/41 1/1/42 14/16/43 13/15/44
f 1/1/45 3/4/46 15/17/47 14/16/48
f 21/28/49 22/29/50 23/30/51 24/31/52
f 5/32/53 7/27/54 13/15/55 16/18/56
f 6/21/57 4/26/58 17/23/59 18/22/60
f 4/26/61 12/14/62 19/24/63 17/23/64
f 12/14/65 11/13/66 20/25/67 19/24/68
f 11/13/69 6/21/70 18/22/71 20/25/72
f 3/4/73 5/32/74 22/29/75 21/28/76
f 5/32/77 16/18/78 23/30/79 22/29/80
f 16/18/81 15/17/82 24/31/83 23/30/84
f 15/17/85 3/4/86 21/28/87 24/31/88
f 37/33/89 38/34/90 39/35/91 40/36/92
f 27/37/93 26/38/94 34/39/95 35/40/96
f 28/41/97 27/37/98 35/40/99 36/42/100
f 25/43/101 28/44/102 36/45/103 33/46/104
f 41/47/105 37/33/106 40/36/107 42/48/108
f 31/7/109 30/5/110 26/38/111 27/37/112
f 32/9/113 31/7/114 27/37/115 28/41/116
f 29/3/117 32/2/118 28/44/119 25/43/120
f 33/46/121 4/26/122 6/49/123 34/39/124
f 35/40/125 34/39/126 6/49/127 8/50/128
f 36/42/129 35/40/130 8/50/131 2/51/132
f 33/46/133 36/45/134 2/19/135 4/26/136
f 25/43/137 33/46/138 38/34/139 37/33/140
f 33/46/141 34/39/142 39/35/143 38/34/144
f 34/39/145 26/38/146 40/36/147 39/35/148
f 29/3/149 25/43/150 37/33/151 41/47/152
f 26/38/153 30/5/154 42/48/155 40/36/156
f 30/5/157 29/3/158 41/47/159 42/48/160
f 63/52/161 64/53/162 65/54/163 66/55/164
f 67/56/165 68/57/166 69/58/167 70/59/168
f 66/55/169 65/54/170 71/60/171 72/61/172
f 70/59/173 69/58/174 73/62/175 74/63/176
f 72/61/177 71/60/178 75/64/179 76/65/180
f 74/63/181 73/62/182 77/66/183 78/67/184
f 76/65/185 75/64/186 79/68/187 80/69/188
f 75/64/189 78/67/190 81/70/191 79/68/192
f 78/67/193 77/66/194 82/71/195 81/70/196
f 43/72/197 47/73/198 48/74/199 44/75/200
f 45/76/201 49/77/202 50/78/203 46/79/204
f 47/73/205 51/80/206 52/81/207 48/74/208
f 49/77/209 53/82/210 54/83/211 50/78/212
f 51/80/213 55/84/214 56/85/215 52/81/216
f 53/82/217 57/86/218 58/87/219 54/83/220
f 55/84/221 59/88/222 60/89/223 56/85/224
f 56/85/225 60/89/226 61/90/227 57/86/228
f 57/86/229 61/90/230 62/91/231 58/87/232
f 43/92/233 44/93/234 64/53/235 63/52/236
f 44/93/237 48/94/238 65/54/239 64/53/240
f 47/95/241 43/92/242 63/52/243 66/55/244
f 45/96/245 46/97/246 68/57/247 67/56/248
f 46/97/249 50/98/250 69/58/251 68/57/252
f 49/99/253 45/96/254 67/56/255 70/59/256
f 48/94/257 52/100/258 71/60/259 65/54/260
f 51/101/261 47/95/262 66/55/263 72/61/264
f 50/98/265 54/102/266 73/62/267 69/58/268
f 53/103/269 49/99/270 70/59/271 74/63/272
f 52/100/273 56/104/274 75/64/275 71/60/276
f 55/105/277 51/101/278 72/61/279 76/65/280
f 54/102/281 58/106/282 77/66/283 73/62/284
f 57/107/285 53/103/286 74/63/287 78/67/288
f 60/108/289 59/109/290 80/69/291 79/68/292
f 59/109/293 55/105/294 76/65/295 80/69/296
f 56/104/297 57/107/298 78/67/299 75/64/300
f 61/110/301 60/108/302 79/68/303 81/70/304
f 58/106/305 62/111/306 82/71/307 77/66/308
f 62/111/309 61/110/310 81/70/311 82/71/312
f 83/112/313 84/113/314 86/114/315 85/115/316
f 85/115/317 86/114/318 88/116/319 87/117/320
f 87/117/321 88/116/322 90/118/323 89/119/324
f 89/119/325 90/118/326 84/120/327 83/121/328
f 84/113/329 90/122/330 88/123/331 86/114/332
f 89/124/333 83/112/334 85/115/335 87/125/336
f 91/126/337 92/127/338 94/128/339 93/129/340
f 93/129/341 94/128/342 96/130/343 95/131/344
f 95/131/345 96/130/346 98/132/347 97/133/348
f 97/133/349 98/132/350 92/134/351 91/135/352
f 92/127/353 98/136/354 96/137/355 94/128/356
f 97/138/357 91/126/358 93/129/359 95/139/360
