# This file uses centimeters as units for non-parametric coordinates.

mtllib light.mtl
g default
v 0.109075 -0.740555 -0.045180
v 0.083482 -0.740555 -0.083482
v 0.045180 -0.740555 -0.109075
v 0.000000 -0.740555 -0.118062
v -0.045180 -0.740555 -0.109075
v -0.083482 -0.740555 -0.083482
v -0.109075 -0.740555 -0.045180
v -0.118062 -0.740555 -0.000000
v -0.109075 -0.740555 0.045180
v -0.083482 -0.740555 0.083482
v -0.045180 -0.740555 0.109075
v -0.000000 -0.740555 0.118062
v 0.045180 -0.740555 0.109075
v 0.083482 -0.740555 0.083482
v 0.109075 -0.740555 0.045180
v 0.118062 -0.740555 0.000000
v 0.109075 -0.260840 -0.045180
v 0.083482 -0.260840 -0.083482
v 0.045180 -0.260840 -0.109075
v 0.000000 -0.260840 -0.118062
v -0.045180 -0.260840 -0.109075
v -0.083482 -0.260840 -0.083482
v -0.109075 -0.260840 -0.045180
v -0.118062 -0.260840 -0.000000
v -0.109075 -0.260840 0.045180
v -0.083482 -0.260840 0.083482
v -0.045180 -0.260840 0.109075
v -0.000000 -0.260840 0.118062
v 0.045180 -0.260840 0.109075
v 0.083482 -0.260840 0.083482
v 0.109075 -0.260840 0.045180
v 0.118062 -0.260840 0.000000
v 0.000000 -0.740555 0.000000
v 0.032956 -0.066887 -0.013530
v 0.025224 -0.066887 -0.025000
v 0.013651 -0.066887 -0.032664
v 0.000000 -0.066887 -0.035356
v -0.013651 -0.066887 -0.032664
v -0.025224 -0.066887 -0.025000
v -0.032956 -0.066887 -0.013530
v -0.035672 -0.066887 -0.000000
v -0.032956 -0.066887 0.013530
v -0.025224 -0.066887 0.025000
v -0.013651 -0.066887 0.032664
v -0.000000 -0.066887 0.035356
v 0.013651 -0.066887 0.032664
v 0.025224 -0.066887 0.025000
v 0.032956 -0.066887 0.013530
v 0.035672 -0.066887 -0.000000
v 0.040139 -0.047527 -0.016479
v 0.030721 -0.047527 -0.030449
v 0.016626 -0.047527 -0.039783
v 0.000000 -0.047527 -0.043061
v -0.016626 -0.047527 -0.039783
v -0.030721 -0.047527 -0.030449
v -0.040138 -0.047527 -0.016479
v -0.043446 -0.047527 -0.000000
v -0.040139 -0.047527 0.016479
v -0.030721 -0.047527 0.030449
v -0.016626 -0.047527 0.039783
v -0.000000 -0.047527 0.043061
v 0.016626 -0.047527 0.039783
v 0.030721 -0.047527 0.030449
v 0.040139 -0.047527 0.016479
v 0.043446 -0.047527 -0.000000
v 0.040139 -0.029608 -0.016479
v 0.030721 -0.029608 -0.030449
v 0.016626 -0.029608 -0.039783
v 0.000000 -0.029608 -0.043061
v -0.016626 -0.029608 -0.039783
v -0.030721 -0.029608 -0.030449
v -0.040138 -0.029608 -0.016479
v -0.043446 -0.029608 -0.000000
v -0.040138 -0.029608 0.016479
v -0.030721 -0.029608 0.030449
v -0.016626 -0.029608 0.039783
v -0.000000 -0.029608 0.043061
v 0.016626 -0.029608 0.039783
v 0.030721 -0.029608 0.030449
v 0.040139 -0.029608 0.016479
v 0.043446 -0.029608 -0.000000
v 0.034498 -0.014621 -0.014163
v 0.026403 -0.014621 -0.026169
v 0.014289 -0.014621 -0.034192
v 0.000000 -0.014621 -0.037009
v -0.014289 -0.014621 -0.034192
v -0.026403 -0.014621 -0.026169
v -0.034497 -0.014621 -0.014163
v -0.037340 -0.014621 0.000000
v -0.034498 -0.014621 0.014163
v -0.026403 -0.014621 0.026169
v -0.014289 -0.014621 0.034192
v -0.000000 -0.014621 0.037009
v 0.014289 -0.014621 0.034192
v 0.026403 -0.014621 0.026169
v 0.034498 -0.014621 0.014163
v 0.037340 -0.014621 -0.000000
v 0.015638 0.000000 -0.006420
v 0.011968 0.000000 -0.011862
v 0.000000 0.002280 0.000000
v 0.006477 0.000000 -0.015499
v 0.000000 0.000000 -0.016776
v -0.006477 0.000000 -0.015499
v -0.011968 0.000000 -0.011862
v -0.015638 0.000000 -0.006420
v -0.016926 0.000000 0.000000
v -0.015638 0.000000 0.006420
v -0.011968 0.000000 0.011862
v -0.006477 0.000000 0.015499
v 0.000000 0.000000 0.016776
v 0.006477 0.000000 0.015499
v 0.011968 0.000000 0.011862
v 0.015638 0.000000 0.006420
v 0.016926 0.000000 -0.000000
v 0.028050 -0.007310 -0.011516
v 0.021469 -0.007310 -0.021278
v 0.011619 -0.007310 -0.027802
v 0.000000 -0.007310 -0.030092
v -0.011619 -0.007310 -0.027802
v -0.021469 -0.007310 -0.021278
v -0.028050 -0.007310 -0.011516
v -0.030361 -0.007310 0.000000
v -0.028050 -0.007310 0.011516
v -0.021469 -0.007310 0.021278
v -0.011619 -0.007310 0.027802
v 0.000000 -0.007310 0.030092
v 0.011619 -0.007310 0.027802
v 0.021469 -0.007310 0.021278
v 0.028050 -0.007310 0.011516
v 0.030361 -0.007310 -0.000000
vt 0.644356 0.096456
vt 0.610485 0.045765
vt 0.559794 0.011894
vt 0.500000 0.000000
vt 0.440206 0.011894
vt 0.389515 0.045765
vt 0.355644 0.096456
vt 0.343750 0.156250
vt 0.355644 0.216044
vt 0.389515 0.266735
vt 0.440206 0.300606
vt 0.500000 0.312500
vt 0.559794 0.300606
vt 0.610485 0.266735
vt 0.644356 0.216044
vt 0.656250 0.156250
vt 0.375000 0.312500
vt 0.390625 0.312500
vt 0.406250 0.312500
vt 0.421875 0.312500
vt 0.437500 0.312500
vt 0.453125 0.312500
vt 0.468750 0.312500
vt 0.484375 0.312500
vt 0.500000 0.312500
vt 0.515625 0.312500
vt 0.531250 0.312500
vt 0.546875 0.312500
vt 0.562500 0.312500
vt 0.578125 0.312500
vt 0.593750 0.312500
vt 0.609375 0.312500
vt 0.625000 0.312500
vt 0.375000 0.688440
vt 0.390625 0.688440
vt 0.406250 0.688440
vt 0.421875 0.688440
vt 0.437500 0.688440
vt 0.453125 0.688440
vt 0.468750 0.688440
vt 0.484375 0.688440
vt 0.500000 0.688440
vt 0.515625 0.688440
vt 0.531250 0.688440
vt 0.546875 0.688440
vt 0.562500 0.688440
vt 0.578125 0.688440
vt 0.593750 0.688440
vt 0.609375 0.688440
vt 0.625000 0.688440
vt 0.644356 0.783956
vt 0.610485 0.733265
vt 0.559794 0.699394
vt 0.500000 0.687500
vt 0.440206 0.699394
vt 0.389515 0.733265
vt 0.355644 0.783956
vt 0.343750 0.843750
vt 0.355644 0.903544
vt 0.389515 0.954235
vt 0.440206 0.988106
vt 0.500000 1.000000
vt 0.559794 0.988106
vt 0.610485 0.954235
vt 0.644356 0.903544
vt 0.656250 0.843750
vt 0.500000 0.150000
vt 0.500000 0.837500
vt 0.644356 0.903544
vt 0.610485 0.954235
vt 0.559794 0.988106
vt 0.500000 1.000000
vt 0.440206 0.988106
vt 0.389515 0.954235
vt 0.355644 0.903544
vt 0.343750 0.843750
vt 0.355644 0.783956
vt 0.389515 0.733265
vt 0.440206 0.699394
vt 0.500000 0.687500
vt 0.559794 0.699394
vt 0.610485 0.733265
vt 0.644356 0.783956
vt 0.656250 0.843750
vt 0.644356 0.903544
vt 0.610485 0.954235
vt 0.559794 0.988106
vt 0.500000 1.000000
vt 0.440206 0.988106
vt 0.389515 0.954235
vt 0.355644 0.903544
vt 0.343750 0.843750
vt 0.355644 0.783956
vt 0.389515 0.733265
vt 0.440206 0.699394
vt 0.500000 0.687500
vt 0.559794 0.699394
vt 0.610485 0.733265
vt 0.644356 0.783956
vt 0.656250 0.843750
vt 0.644356 0.903544
vt 0.610485 0.954235
vt 0.559794 0.988106
vt 0.500000 1.000000
vt 0.440206 0.988106
vt 0.389515 0.954235
vt 0.355644 0.903544
vt 0.343750 0.843750
vt 0.355644 0.783956
vt 0.389515 0.733265
vt 0.440206 0.699394
vt 0.500000 0.687500
vt 0.559794 0.699394
vt 0.610485 0.733265
vt 0.644356 0.783956
vt 0.656250 0.843750
vt 0.621776 0.937338
vt 0.576691 0.976816
vt 0.519931 0.996035
vt 0.460137 0.992071
vt 0.406412 0.965526
vt 0.366934 0.920441
vt 0.347715 0.863681
vt 0.351679 0.803887
vt 0.378224 0.750162
vt 0.423309 0.710684
vt 0.480069 0.691465
vt 0.539863 0.695429
vt 0.593588 0.721974
vt 0.633066 0.767059
vt 0.652285 0.823819
vt 0.648321 0.883613
vt 0.610485 0.954235
vt 0.644356 0.903544
vt 0.559794 0.988106
vt 0.610485 0.954235
vt 0.500000 1.000000
vt 0.559794 0.988106
vt 0.440206 0.988106
vt 0.500000 1.000000
vt 0.389515 0.954235
vt 0.440206 0.988106
vt 0.355644 0.903544
vt 0.389515 0.954235
vt 0.343750 0.843750
vt 0.355644 0.903544
vt 0.355644 0.783956
vt 0.343750 0.843750
vt 0.389515 0.733265
vt 0.355644 0.783956
vt 0.440206 0.699394
vt 0.389515 0.733265
vt 0.500000 0.687500
vt 0.440206 0.699394
vt 0.559794 0.699394
vt 0.500000 0.687500
vt 0.610485 0.733265
vt 0.559794 0.699394
vt 0.644356 0.783956
vt 0.610485 0.733265
vt 0.656250 0.843750
vt 0.644356 0.783956
vt 0.644356 0.903544
vt 0.656250 0.843750
vn 0.923880 0.000000 -0.382683
vn 0.707107 0.000000 -0.707106
vn 0.704400 0.084812 -0.704718
vn 0.920501 0.084667 -0.381456
vn 0.382684 0.000000 -0.923879
vn 0.381153 0.084958 -0.920600
vn 0.000001 0.000000 -1.000000
vn 0.000001 0.085018 -0.996379
vn -0.382683 0.000000 -0.923880
vn -0.381153 0.084958 -0.920600
vn -0.707106 0.000000 -0.707107
vn -0.704400 0.084812 -0.704718
vn -0.923879 0.000000 -0.382684
vn -0.920501 0.084667 -0.381457
vn -1.000000 0.000000 -0.000000
vn -0.996414 0.084606 -0.000000
vn -0.923880 0.000000 0.382683
vn -0.920501 0.084667 0.381456
vn -0.707107 0.000000 0.707106
vn -0.704400 0.084812 0.704718
vn -0.382684 0.000000 0.923879
vn -0.381153 0.084958 0.920600
vn -0.000000 0.000000 1.000000
vn 0.000000 0.085018 0.996379
vn 0.382683 0.000000 0.923880
vn 0.381153 0.084958 0.920600
vn 0.707107 0.000000 0.707107
vn 0.704400 0.084812 0.704718
vn 0.923880 0.000000 0.382684
vn 0.920501 0.084667 0.381456
vn 1.000000 0.000000 0.000000
vn 0.996414 0.084606 0.000000
vn 0.000000 -1.000000 0.000000
vn 0.000000 -1.000000 0.000000
vn 0.000000 -1.000000 0.000000
vn 0.000000 -1.000000 -0.000000
vn 0.000000 -1.000000 -0.000000
vn 0.000000 -1.000000 0.000000
vn 0.000000 -1.000000 0.000000
vn 0.000000 -1.000000 0.000000
vn 0.000000 -1.000000 0.000000
vn 0.000000 -1.000000 0.000000
vn 0.000000 -1.000000 0.000000
vn 0.000000 -1.000000 0.000000
vn 0.000000 -1.000000 0.000000
vn 0.000000 -1.000000 0.000000
vn 0.000000 -1.000000 -0.000000
vn 0.000000 -1.000000 -0.000000
vn 0.000000 -1.000000 0.000000
vn 0.123404 0.991022 -0.051446
vn 0.094525 0.990966 -0.095138
vn 0.000000 1.000000 0.000000
vn 0.051198 0.990910 -0.124405
vn 0.000000 0.990887 -0.134698
vn -0.051198 0.990910 -0.124401
vn -0.094526 0.990967 -0.095132
vn -0.123404 0.991022 -0.051446
vn -0.133526 0.991045 0.000000
vn -0.123404 0.991022 0.051453
vn -0.094526 0.990966 0.095138
vn -0.051198 0.990910 0.124399
vn -0.000000 0.990887 0.134697
vn 0.051198 0.990910 0.124405
vn 0.094526 0.990966 0.095134
vn 0.123404 0.991022 0.051442
vn 0.133526 0.991045 -0.000000
vn 0.658912 0.359703 -0.660643
vn 0.861842 0.359330 -0.357925
vn 0.356216 0.360075 -0.862239
vn 0.000001 0.360229 -0.932864
vn -0.356215 0.360075 -0.862239
vn -0.658912 0.359703 -0.660643
vn -0.861842 0.359330 -0.357925
vn -0.933270 0.359175 -0.000000
vn -0.861842 0.359330 0.357925
vn -0.658912 0.359703 0.660643
vn -0.356216 0.360075 0.862239
vn 0.000000 0.360229 0.932864
vn 0.356215 0.360075 0.862239
vn 0.658912 0.359703 0.660643
vn 0.861842 0.359330 0.357925
vn 0.933270 0.359175 0.000000
vn 0.691281 -0.189936 -0.697176
vn 0.905830 -0.190473 -0.378406
vn 0.373041 -0.189402 -0.908277
vn 0.000001 -0.189183 -0.981942
vn -0.373040 -0.189402 -0.908278
vn -0.691282 -0.189936 -0.697176
vn -0.905830 -0.190473 -0.378407
vn -0.981649 -0.190697 -0.000001
vn -0.905831 -0.190474 0.378405
vn -0.691281 -0.189936 0.697176
vn -0.373040 -0.189403 0.908278
vn 0.000000 -0.189183 0.981942
vn 0.373039 -0.189403 0.908278
vn 0.691281 -0.189936 0.697176
vn 0.905830 -0.190474 0.378406
vn 0.981649 -0.190697 0.000001
vn 0.693823 0.170083 -0.699772
vn 0.909196 0.170564 -0.379830
vn 0.374399 0.169607 -0.911624
vn 0.000002 0.169411 -0.985546
vn -0.374397 0.169607 -0.911625
vn -0.693824 0.170084 -0.699771
vn -0.909196 0.170564 -0.379830
vn -0.985312 0.170764 -0.000001
vn -0.909196 0.170564 0.379829
vn -0.693824 0.170084 0.699771
vn -0.374398 0.169608 0.911625
vn -0.000000 0.169411 0.985546
vn 0.374398 0.169607 0.911625
vn 0.693824 0.170084 0.699771
vn 0.909196 0.170564 0.379829
vn 0.985312 0.170764 -0.000000
vn 0.617097 0.481076 -0.622702
vn 0.808315 0.482163 -0.337856
vn 0.333134 0.479996 -0.811557
vn 0.000002 0.479552 -0.877513
vn -0.333133 0.479997 -0.811557
vn -0.617097 0.481076 -0.622701
vn -0.808314 0.482163 -0.337856
vn -0.875832 0.482616 -0.000001
vn -0.808315 0.482163 0.337855
vn -0.617097 0.481077 0.622701
vn -0.333134 0.479997 0.811557
vn 0.000000 0.479552 0.877513
vn 0.333133 0.479997 0.811557
vn 0.617097 0.481075 0.622702
vn 0.808315 0.482162 0.337855
vn 0.875833 0.482615 -0.000000
vn 0.569686 0.786616 -0.238103
vn 0.441307 0.878133 -0.184746
vn 0.477931 0.878397 -0.000000
vn 0.616978 0.786980 -0.000000
vn 0.435415 0.785739 -0.439349
vn 0.337312 0.877496 -0.340912
vn 0.235321 0.784864 -0.573246
vn 0.182310 0.876863 -0.444831
vn 0.000001 0.784504 -0.620124
vn 0.000001 0.876601 -0.481218
vn -0.235321 0.784865 -0.573246
vn -0.182310 0.876863 -0.444832
vn -0.435415 0.785739 -0.439349
vn -0.337312 0.877497 -0.340911
vn -0.569686 0.786616 -0.238104
vn -0.441307 0.878133 -0.184746
vn -0.616978 0.786980 -0.000001
vn -0.477931 0.878397 -0.000002
vn -0.569686 0.786616 0.238102
vn -0.441307 0.878133 0.184745
vn -0.435415 0.785739 0.439349
vn -0.337312 0.877496 0.340912
vn -0.235321 0.784865 0.573247
vn -0.182310 0.876863 0.444830
vn 0.000000 0.784504 0.620124
vn 0.000000 0.876602 0.481216
vn 0.235321 0.784865 0.573247
vn 0.182310 0.876863 0.444830
vn 0.435415 0.785739 0.439350
vn 0.337312 0.877497 0.340911
vn 0.569686 0.786616 0.238103
vn 0.441307 0.878133 0.184745
s 1
g pCylinder1
usemtl initialShadingGroup
f 1/17/1 2/18/2 18/35/3 17/34/4
f 2/18/2 3/19/5 19/36/6 18/35/3
f 3/19/5 4/20/7 20/37/8 19/36/6
f 4/20/7 5/21/9 21/38/10 20/37/8
f 5/21/9 6/22/11 22/39/12 21/38/10
f 6/22/11 7/23/13 23/40/14 22/39/12
f 7/23/13 8/24/15 24/41/16 23/40/14
f 8/24/15 9/25/17 25/42/18 24/41/16
f 9/25/17 10/26/19 26/43/20 25/42/18
f 10/26/19 11/27/21 27/44/22 26/43/20
f 11/27/21 12/28/23 28/45/24 27/44/22
f 12/28/23 13/29/25 29/46/26 28/45/24
f 13/29/25 14/30/27 30/47/28 29/46/26
f 14/30/27 15/31/29 31/48/30 30/47/28
f 15/31/29 16/32/31 32/49/32 31/48/30
f 16/32/31 1/33/1 17/50/4 32/49/32
s 2
f 2/2/33 1/1/34 33/67/35
f 3/3/36 2/2/33 33/67/35
f 4/4/37 3/3/36 33/67/35
f 5/5/38 4/4/37 33/67/35
f 6/6/39 5/5/38 33/67/35
f 7/7/40 6/6/39 33/67/35
f 8/8/41 7/7/40 33/67/35
f 9/9/42 8/8/41 33/67/35
f 10/10/43 9/9/42 33/67/35
f 11/11/44 10/10/43 33/67/35
f 12/12/45 11/11/44 33/67/35
f 13/13/46 12/12/45 33/67/35
f 14/14/47 13/13/46 33/67/35
f 15/15/48 14/14/47 33/67/35
f 16/16/49 15/15/48 33/67/35
f 1/1/34 16/16/49 33/67/35
s 3
f 98/117/50 99/118/51 100/68/52
f 99/118/51 101/119/53 100/68/52
f 101/119/53 102/120/54 100/68/52
f 102/120/54 103/121/55 100/68/52
f 103/121/55 104/122/56 100/68/52
f 104/122/56 105/123/57 100/68/52
f 105/123/57 106/124/58 100/68/52
f 106/124/58 107/125/59 100/68/52
f 107/125/59 108/126/60 100/68/52
f 108/126/60 109/127/61 100/68/52
f 109/127/61 110/128/62 100/68/52
f 110/128/62 111/129/63 100/68/52
f 111/129/63 112/130/64 100/68/52
f 112/130/64 113/131/65 100/68/52
f 113/131/65 114/132/66 100/68/52
f 114/132/66 98/117/50 100/68/52
s 1
f 17/65/4 18/64/3 35/70/67 34/69/68
f 18/64/3 19/63/6 36/71/69 35/70/67
f 19/63/6 20/62/8 37/72/70 36/71/69
f 20/62/8 21/61/10 38/73/71 37/72/70
f 21/61/10 22/60/12 39/74/72 38/73/71
f 22/60/12 23/59/14 40/75/73 39/74/72
f 23/59/14 24/58/16 41/76/74 40/75/73
f 24/58/16 25/57/18 42/77/75 41/76/74
f 25/57/18 26/56/20 43/78/76 42/77/75
f 26/56/20 27/55/22 44/79/77 43/78/76
f 27/55/22 28/54/24 45/80/78 44/79/77
f 28/54/24 29/53/26 46/81/79 45/80/78
f 29/53/26 30/52/28 47/82/80 46/81/79
f 30/52/28 31/51/30 48/83/81 47/82/80
f 31/51/30 32/66/32 49/84/82 48/83/81
f 32/66/32 17/65/4 34/69/68 49/84/82
f 34/69/68 35/70/67 51/86/83 50/85/84
f 35/70/67 36/71/69 52/87/85 51/86/83
f 36/71/69 37/72/70 53/88/86 52/87/85
f 37/72/70 38/73/71 54/89/87 53/88/86
f 38/73/71 39/74/72 55/90/88 54/89/87
f 39/74/72 40/75/73 56/91/89 55/90/88
f 40/75/73 41/76/74 57/92/90 56/91/89
f 41/76/74 42/77/75 58/93/91 57/92/90
f 42/77/75 43/78/76 59/94/92 58/93/91
f 43/78/76 44/79/77 60/95/93 59/94/92
f 44/79/77 45/80/78 61/96/94 60/95/93
f 45/80/78 46/81/79 62/97/95 61/96/94
f 46/81/79 47/82/80 63/98/96 62/97/95
f 47/82/80 48/83/81 64/99/97 63/98/96
f 48/83/81 49/84/82 65/100/98 64/99/97
f 49/84/82 34/69/68 50/85/84 65/100/98
f 50/85/84 51/86/83 67/102/99 66/101/100
f 51/86/83 52/87/85 68/103/101 67/102/99
f 52/87/85 53/88/86 69/104/102 68/103/101
f 53/88/86 54/89/87 70/105/103 69/104/102
f 54/89/87 55/90/88 71/106/104 70/105/103
f 55/90/88 56/91/89 72/107/105 71/106/104
f 56/91/89 57/92/90 73/108/106 72/107/105
f 57/92/90 58/93/91 74/109/107 73/108/106
f 58/93/91 59/94/92 75/110/108 74/109/107
f 59/94/92 60/95/93 76/111/109 75/110/108
f 60/95/93 61/96/94 77/112/110 76/111/109
f 61/96/94 62/97/95 78/113/111 77/112/110
f 62/97/95 63/98/96 79/114/112 78/113/111
f 63/98/96 64/99/97 80/115/113 79/114/112
f 64/99/97 65/100/98 81/116/114 80/115/113
f 65/100/98 50/85/84 66/101/100 81/116/114
f 66/101/100 67/102/99 83/133/115 82/163/116
f 67/102/99 68/103/101 84/135/117 83/133/115
f 68/103/101 69/104/102 85/137/118 84/135/117
f 69/104/102 70/105/103 86/139/119 85/137/118
f 70/105/103 71/106/104 87/141/120 86/139/119
f 71/106/104 72/107/105 88/143/121 87/141/120
f 72/107/105 73/108/106 89/145/122 88/143/121
f 73/108/106 74/109/107 90/147/123 89/145/122
f 74/109/107 75/110/108 91/149/124 90/147/123
f 75/110/108 76/111/109 92/151/125 91/149/124
f 76/111/109 77/112/110 93/153/126 92/151/125
f 77/112/110 78/113/111 94/155/127 93/153/126
f 78/113/111 79/114/112 95/157/128 94/155/127
f 79/114/112 80/115/113 96/159/129 95/157/128
f 80/115/113 81/116/114 97/161/130 96/159/129
f 81/116/114 66/101/100 82/163/116 97/161/130
f 115/134/131 98/117/132 114/132/133 130/164/134
f 98/117/132 115/134/131 116/136/135 99/118/136
f 99/118/136 116/136/135 117/138/137 101/119/138
f 101/119/138 117/138/137 118/140/139 102/120/140
f 102/120/140 118/140/139 119/142/141 103/121/142
f 103/121/142 119/142/141 120/144/143 104/122/144
f 104/122/144 120/144/143 121/146/145 105/123/146
f 105/123/146 121/146/145 122/148/147 106/124/148
f 106/124/148 122/148/147 123/150/149 107/125/150
f 107/125/150 123/150/149 124/152/151 108/126/152
f 108/126/152 124/152/151 125/154/153 109/127/154
f 109/127/154 125/154/153 126/156/155 110/128/156
f 110/128/156 126/156/155 127/158/157 111/129/158
f 111/129/158 127/158/157 128/160/159 112/130/160
f 112/130/160 128/160/159 129/162/161 113/131/162
f 113/131/162 129/162/161 130/164/134 114/132/133
f 82/163/116 83/133/115 116/136/135 115/134/131
f 83/133/115 84/135/117 117/138/137 116/136/135
f 84/135/117 85/137/118 118/140/139 117/138/137
f 85/137/118 86/139/119 119/142/141 118/140/139
f 86/139/119 87/141/120 120/144/143 119/142/141
f 87/141/120 88/143/121 121/146/145 120/144/143
f 88/143/121 89/145/122 122/148/147 121/146/145
f 89/145/122 90/147/123 123/150/149 122/148/147
f 90/147/123 91/149/124 124/152/151 123/150/149
f 91/149/124 92/151/125 125/154/153 124/152/151
f 92/151/125 93/153/126 126/156/155 125/154/153
f 93/153/126 94/155/127 127/158/157 126/156/155
f 94/155/127 95/157/128 128/160/159 127/158/157
f 95/157/128 96/159/129 129/162/161 128/160/159
f 96/159/129 97/161/130 130/164/134 129/162/161
f 97/161/130 82/163/116 115/134/131 130/164/134
