# This file uses centimeters as units for non-parametric coordinates.

mtllib NeedleGroup.mtl
g default
v -0.339017 -0.161814 -0.218690
v -0.443105 -0.201908 -0.269406
v -0.359968 -0.110234 -0.229761
v -0.441866 -0.149945 -0.262753
v -0.408560 -0.116883 -0.168782
v -0.455040 -0.151748 -0.246221
v -0.387608 -0.168463 -0.157711
v -0.456279 -0.203711 -0.252874
v -0.424735 -0.015165 -0.220793
v -0.369539 -0.237577 -0.150848
v -0.315430 -0.447618 -0.130633
v -0.215854 -0.693840 -0.078131
v -0.090343 -0.929274 -0.003787
v -0.445416 -0.288881 -0.253504
v -0.408828 -0.472912 -0.244414
v -0.321614 -0.747290 -0.204834
v -0.205393 -0.996006 -0.139340
v -0.432242 -0.287078 -0.270036
v -0.395654 -0.471109 -0.260947
v -0.308440 -0.745488 -0.221366
v -0.192219 -0.994204 -0.155873
v -0.320948 -0.230929 -0.211827
v -0.266839 -0.440969 -0.191611
v -0.167263 -0.687191 -0.139110
v -0.041751 -0.922625 -0.064765
v 0.138064 -0.169010 -0.391033
v 0.178030 -0.213919 -0.497804
v 0.147739 -0.118466 -0.414985
v 0.172199 -0.161843 -0.498009
v 0.082295 -0.125960 -0.457231
v 0.154456 -0.163874 -0.509463
v 0.072621 -0.176504 -0.433279
v 0.160287 -0.215950 -0.509257
v 0.133823 -0.025822 -0.482340
v 0.066633 -0.244749 -0.411896
v 0.048992 -0.452186 -0.347771
v 0.003117 -0.693487 -0.233899
v -0.061870 -0.922646 -0.092577
v 0.160857 -0.300638 -0.495116
v 0.152944 -0.482948 -0.450518
v 0.118377 -0.753071 -0.349052
v 0.061137 -0.996006 -0.217286
v 0.178599 -0.298606 -0.483663
v 0.170687 -0.480917 -0.439065
v 0.136120 -0.751040 -0.337599
v 0.078879 -0.993975 -0.205832
v 0.132076 -0.237255 -0.369650
v 0.114436 -0.444692 -0.305525
v 0.068560 -0.685992 -0.191653
v 0.003573 -0.915152 -0.050331
v -0.008930 -0.165122 0.039127
v 0.110051 -0.158475 0.010608
v -0.006431 -0.108414 0.039127
v 0.086020 -0.111908 0.010608
v -0.006431 -0.108414 -0.039127
v 0.086020 -0.111908 -0.010608
v -0.008930 -0.165122 -0.039127
v 0.110051 -0.158475 -0.010608
v -0.001065 0.000000 -0.000000
v -0.000392 -0.236378 -0.039127
v 0.026510 -0.452549 -0.039127
v 0.015102 -0.723043 -0.039127
v -0.031803 -0.996006 -0.039127
v 0.134121 -0.240894 -0.010608
v 0.170549 -0.425181 -0.010608
v 0.186051 -0.715382 -0.010608
v 0.155950 -0.996006 -0.010608
v 0.134121 -0.240894 0.010608
v 0.170549 -0.425181 0.010608
v 0.186051 -0.715382 0.010608
v 0.155950 -0.996006 0.010608
v -0.000392 -0.236378 0.039127
v 0.026510 -0.452549 0.039127
v 0.015102 -0.723043 0.039127
v -0.031803 -0.996006 0.039127
vt 0.375000 0.000000
vt 0.625000 0.000000
vt 0.375000 0.250000
vt 0.625000 0.250000
vt 0.375000 0.500000
vt 0.625000 0.500000
vt 0.375000 0.750000
vt 0.625000 0.750000
vt 0.375000 1.000000
vt 0.625000 1.000000
vt 0.875000 0.000000
vt 0.875000 0.250000
vt 0.125000 0.000000
vt 0.125000 0.250000
vt 0.500000 0.375000
vt 0.375000 0.750000
vt 0.375000 0.750000
vt 0.375000 0.750000
vt 0.375000 0.750000
vt 0.625000 0.750000
vt 0.625000 0.750000
vt 0.625000 0.750000
vt 0.625000 0.750000
vt 0.625000 1.000000
vt 0.625000 1.000000
vt 0.625000 1.000000
vt 0.625000 1.000000
vt 0.375000 1.000000
vt 0.375000 1.000000
vt 0.375000 1.000000
vt 0.375000 1.000000
vt 0.375000 0.000000
vt 0.625000 0.000000
vt 0.625000 0.250000
vt 0.375000 0.250000
vt 0.375000 0.500000
vt 0.625000 0.500000
vt 0.625000 0.750000
vt 0.375000 0.750000
vt 0.375000 0.750000
vt 0.625000 0.750000
vt 0.625000 1.000000
vt 0.375000 1.000000
vt 0.875000 0.000000
vt 0.875000 0.250000
vt 0.125000 0.000000
vt 0.125000 0.250000
vt 0.500000 0.375000
vt 0.625000 0.750000
vt 0.375000 0.750000
vt 0.625000 0.750000
vt 0.375000 0.750000
vt 0.625000 0.750000
vt 0.375000 0.750000
vt 0.625000 1.000000
vt 0.625000 1.000000
vt 0.625000 1.000000
vt 0.625000 1.000000
vt 0.375000 1.000000
vt 0.375000 1.000000
vt 0.375000 1.000000
vt 0.375000 1.000000
vt 0.375000 0.000000
vt 0.625000 0.000000
vt 0.625000 0.250000
vt 0.375000 0.250000
vt 0.375000 0.500000
vt 0.625000 0.500000
vt 0.625000 0.750000
vt 0.375000 0.750000
vt 0.375000 0.750000
vt 0.625000 0.750000
vt 0.625000 1.000000
vt 0.375000 1.000000
vt 0.875000 0.000000
vt 0.875000 0.250000
vt 0.125000 0.000000
vt 0.125000 0.250000
vt 0.500000 0.375000
vt 0.625000 0.750000
vt 0.375000 0.750000
vt 0.625000 0.750000
vt 0.375000 0.750000
vt 0.625000 0.750000
vt 0.375000 0.750000
vt 0.625000 1.000000
vt 0.625000 1.000000
vt 0.625000 1.000000
vt 0.625000 1.000000
vt 0.375000 1.000000
vt 0.375000 1.000000
vt 0.375000 1.000000
vt 0.375000 1.000000
vn 0.421376 0.042083 -0.905909
vn 0.424656 0.042845 -0.904341
vn 0.354619 0.105701 -0.929017
vn 0.330357 0.143294 -0.932915
vn -0.842318 -0.017163 0.538707
vn -0.829026 -0.056257 0.556373
vn -0.782486 -0.122328 0.610534
vn -0.784674 -0.122941 0.607596
vn 0.338305 -0.925803 0.168637
vn 0.338305 -0.925803 0.168637
vn 0.338305 -0.925803 0.168637
vn 0.338305 -0.925803 0.168637
vn -0.783499 0.097248 -0.613736
vn -0.783499 0.097248 -0.613736
vn -0.776798 0.199798 -0.597214
vn -0.776798 0.199798 -0.597214
vn 0.722256 0.324276 0.610894
vn 0.722256 0.324276 0.610894
vn 0.690658 0.410834 0.595152
vn 0.690658 0.410834 0.595152
vn 0.250437 0.258617 -0.932952
vn -0.765802 0.277883 -0.579938
vn -0.872812 0.104922 0.476645
vn 0.689504 0.413651 0.594539
vn -0.762284 -0.125872 0.634886
vn -0.763979 -0.125195 0.632978
vn -0.746353 -0.139458 0.650775
vn -0.745033 -0.140720 0.652015
vn -0.727173 -0.155144 0.668692
vn -0.725769 -0.156119 0.669990
vn -0.716973 -0.162158 0.677978
vn -0.716973 -0.162158 0.677978
vn -0.773579 -0.094025 -0.626686
vn -0.773579 -0.094025 -0.626686
vn -0.764413 -0.154408 -0.625964
vn -0.764413 -0.154408 -0.625964
vn -0.739702 -0.265425 -0.618378
vn -0.739702 -0.265425 -0.618378
vn -0.698213 -0.391882 -0.599106
vn -0.698213 -0.391882 -0.599106
vn -0.666978 -0.464972 -0.582186
vn -0.666978 -0.464972 -0.582186
vn 0.450913 0.041039 -0.891624
vn 0.453218 0.040446 -0.890481
vn 0.475309 0.026260 -0.879427
vn 0.473675 0.027478 -0.880271
vn 0.498739 0.011430 -0.866677
vn 0.497058 0.012368 -0.867629
vn 0.509118 0.005608 -0.860678
vn 0.509118 0.005608 -0.860678
vn 0.743179 0.252269 0.619714
vn 0.743179 0.252269 0.619714
vn 0.717500 0.338687 0.608675
vn 0.717500 0.338687 0.608675
vn 0.666964 0.465004 0.582178
vn 0.666964 0.465004 0.582178
vn 0.639585 0.519803 0.566335
vn 0.639585 0.519803 0.566335
vn 0.942651 0.043137 0.330981
vn 0.941414 0.044051 0.334363
vn 0.960062 0.103746 0.259840
vn 0.962099 0.140307 0.233837
vn -0.617273 -0.040554 -0.785704
vn -0.634084 -0.078808 -0.769238
vn -0.684376 -0.142127 -0.715143
vn -0.681669 -0.142872 -0.717576
vn -0.147327 -0.909165 0.389504
vn -0.147327 -0.909165 0.389504
vn -0.147327 -0.909165 0.389504
vn -0.147327 -0.909165 0.389504
vn 0.536875 0.056789 -0.841748
vn 0.536875 0.056789 -0.841748
vn 0.522401 0.159783 -0.837596
vn 0.522401 0.159783 -0.837596
vn -0.534479 0.361960 0.763752
vn -0.534479 0.361960 0.763752
vn -0.520727 0.446966 0.727369
vn -0.520727 0.446966 0.727369
vn 0.955952 0.252454 0.149743
vn 0.507271 0.238512 -0.828124
vn -0.556852 0.079216 -0.826826
vn -0.520191 0.449725 0.726050
vn -0.706719 -0.144484 -0.692584
vn -0.704974 -0.143905 -0.694480
vn -0.721179 -0.157181 -0.674681
vn -0.722303 -0.158370 -0.673200
vn -0.737373 -0.171816 -0.653269
vn -0.738543 -0.172715 -0.651708
vn -0.745727 -0.178277 -0.641957
vn -0.745727 -0.178277 -0.641957
vn 0.548243 -0.134149 -0.825490
vn 0.548243 -0.134149 -0.825490
vn 0.547626 -0.194115 -0.813895
vn 0.547626 -0.194115 -0.813895
vn 0.541013 -0.303957 -0.784165
vn 0.541013 -0.303957 -0.784165
vn 0.524180 -0.428386 -0.736017
vn 0.524180 -0.428386 -0.736017
vn 0.509395 -0.499929 -0.700420
vn 0.509395 -0.499929 -0.700420
vn 0.931255 0.043467 0.361765
vn 0.930332 0.042982 0.364191
vn 0.921267 0.029843 0.387784
vn 0.921966 0.030984 0.386029
vn 0.910635 0.016141 0.412895
vn 0.911434 0.016997 0.411096
vn 0.905586 0.010823 0.424024
vn 0.905586 0.010823 0.424024
vn -0.542180 0.290969 0.788275
vn -0.542180 0.290969 0.788275
vn -0.532541 0.376139 0.758234
vn -0.532541 0.376139 0.758234
vn -0.509388 0.499959 0.700403
vn -0.509388 0.499959 0.700403
vn -0.495541 0.553393 0.669474
vn -0.495541 0.553393 0.669474
vn 0.233367 0.049177 0.971144
vn 0.229820 0.048508 0.972024
vn 0.271085 0.134556 0.953104
vn 0.276748 0.178225 0.944271
vn 0.276748 0.178225 -0.944271
vn 0.271085 0.134556 -0.953104
vn 0.229820 0.048508 -0.972024
vn 0.233367 0.049177 -0.971144
vn 0.000000 -1.000000 0.000000
vn 0.000000 -1.000000 0.000000
vn 0.000000 -1.000000 0.000000
vn 0.000000 -1.000000 0.000000
vn 0.888647 0.458592 0.000000
vn 0.888647 0.458592 0.000000
vn 0.836164 0.548480 0.000000
vn 0.836164 0.548480 0.000000
vn -0.998888 -0.047146 0.000000
vn -0.998888 -0.047146 0.000000
vn -0.998926 0.046335 0.000000
vn -0.998926 0.046335 0.000000
vn 0.290804 0.312034 0.904471
vn 0.789198 0.614139 0.000000
vn 0.290804 0.312034 -0.904471
vn -0.998777 0.049436 0.000000
vn 0.202142 0.034287 -0.978756
vn 0.204243 0.035808 -0.978265
vn 0.186291 0.013639 -0.982400
vn 0.185074 0.011815 -0.982654
vn 0.167691 -0.010392 -0.985785
vn 0.166274 -0.011990 -0.986007
vn 0.157458 -0.021903 -0.987283
vn 0.157458 -0.021903 -0.987283
vn 0.959901 0.280339 0.000000
vn 0.959901 0.280339 0.000000
vn 0.975226 0.221213 0.000000
vn 0.975226 0.221213 0.000000
vn 0.994064 0.108795 0.000000
vn 0.994064 0.108795 0.000000
vn 0.999673 -0.025566 0.000000
vn 0.999673 -0.025566 0.000000
vn 0.994296 -0.106653 0.000000
vn 0.994296 -0.106653 0.000000
vn 0.204243 0.035808 0.978265
vn 0.202142 0.034287 0.978756
vn 0.185074 0.011815 0.982654
vn 0.186291 0.013639 0.982400
vn 0.166274 -0.011990 0.986007
vn 0.167691 -0.010392 0.985785
vn 0.157458 -0.021903 0.987283
vn 0.157458 -0.021903 0.987283
vn -0.992484 -0.122376 0.000000
vn -0.992484 -0.122376 0.000000
vn -0.999494 -0.031821 0.000000
vn -0.999494 -0.031821 0.000000
vn -0.994293 0.106689 0.000000
vn -0.994293 0.106689 0.000000
vn -0.985555 0.169356 0.000000
vn -0.985555 0.169356 0.000000
s 1
g pCube5
usemtl initialShadingGroup
f 1/1/1 2/2/2 4/4/3 3/3/4
s 2
f 5/5/5 6/6/6 8/8/7 7/7/8
s off
f 13/19/9 17/23/10 21/27/11 25/31/12
s 3
f 2/2/13 8/11/14 6/12/15 4/4/16
s 4
f 7/13/17 1/1/18 3/3/19 5/14/20
s 1
f 3/3/4 4/4/3 9/15/21
s 3
f 4/4/16 6/6/15 9/15/22
s 2
f 6/6/6 5/5/5 9/15/23
s 4
f 5/5/20 3/3/19 9/15/24
s 2
f 7/7/8 8/8/7 14/20/25 10/16/26
f 10/16/26 14/20/25 15/21/27 11/17/28
f 11/17/28 15/21/27 16/22/29 12/18/30
f 12/18/30 16/22/29 17/23/31 13/19/32
s 5
f 8/8/33 2/10/34 18/24/35 14/20/36
f 14/20/36 18/24/35 19/25/37 15/21/38
f 15/21/38 19/25/37 20/26/39 16/22/40
f 16/22/40 20/26/39 21/27/41 17/23/42
s 1
f 2/10/2 1/9/1 22/28/43 18/24/44
f 18/24/44 22/28/43 23/29/45 19/25/46
f 19/25/46 23/29/45 24/30/47 20/26/48
f 20/26/48 24/30/47 25/31/49 21/27/50
s 4
f 1/9/18 7/7/17 10/16/51 22/28/52
f 22/28/52 10/16/51 11/17/53 23/29/54
f 23/29/54 11/17/53 12/18/55 24/30/56
f 24/30/56 12/18/55 13/19/57 25/31/58
s 6
f 26/32/59 27/33/60 29/34/61 28/35/62
s 7
f 30/36/63 31/37/64 33/38/65 32/39/66
s off
f 38/40/67 42/41/68 46/42/69 50/43/70
s 8
f 27/33/71 33/44/72 31/45/73 29/34/74
s 9
f 32/46/75 26/32/76 28/35/77 30/47/78
s 6
f 28/35/62 29/34/61 34/48/79
s 8
f 29/34/74 31/37/73 34/48/80
s 7
f 31/37/64 30/36/63 34/48/81
s 9
f 30/36/78 28/35/77 34/48/82
s 7
f 32/39/66 33/38/65 39/49/83 35/50/84
f 35/50/84 39/49/83 40/51/85 36/52/86
f 36/52/86 40/51/85 41/53/87 37/54/88
f 37/54/88 41/53/87 42/41/89 38/40/90
s 10
f 33/38/91 27/55/92 43/56/93 39/49/94
f 39/49/94 43/56/93 44/57/95 40/51/96
f 40/51/96 44/57/95 45/58/97 41/53/98
f 41/53/98 45/58/97 46/42/99 42/41/100
s 6
f 27/55/60 26/59/59 47/60/101 43/56/102
f 43/56/102 47/60/101 48/61/103 44/57/104
f 44/57/104 48/61/103 49/62/105 45/58/106
f 45/58/106 49/62/105 50/43/107 46/42/108
s 9
f 26/59/76 32/39/75 35/50/109 47/60/110
f 47/60/110 35/50/109 36/52/111 48/61/112
f 48/61/112 36/52/111 37/54/113 49/62/114
f 49/62/114 37/54/113 38/40/115 50/43/116
s 11
f 51/63/117 52/64/118 54/65/119 53/66/120
s 12
f 55/67/121 56/68/122 58/69/123 57/70/124
s off
f 63/71/125 67/72/126 71/73/127 75/74/128
s 13
f 52/64/129 58/75/130 56/76/131 54/65/132
s 14
f 57/77/133 51/63/134 53/66/135 55/78/136
s 11
f 53/66/120 54/65/119 59/79/137
s 13
f 54/65/132 56/68/131 59/79/138
s 12
f 56/68/122 55/67/121 59/79/139
s 14
f 55/67/136 53/66/135 59/79/140
s 12
f 57/70/124 58/69/123 64/80/141 60/81/142
f 60/81/142 64/80/141 65/82/143 61/83/144
f 61/83/144 65/82/143 66/84/145 62/85/146
f 62/85/146 66/84/145 67/72/147 63/71/148
s 15
f 58/69/149 52/86/150 68/87/151 64/80/152
f 64/80/152 68/87/151 69/88/153 65/82/154
f 65/82/154 69/88/153 70/89/155 66/84/156
f 66/84/156 70/89/155 71/73/157 67/72/158
s 11
f 52/86/118 51/90/117 72/91/159 68/87/160
f 68/87/160 72/91/159 73/92/161 69/88/162
f 69/88/162 73/92/161 74/93/163 70/89/164
f 70/89/164 74/93/163 75/74/165 71/73/166
s 14
f 51/90/134 57/70/133 60/81/167 72/91/168
f 72/91/168 60/81/167 61/83/169 73/92/170
f 73/92/170 61/83/169 62/85/171 74/93/172
f 74/93/172 62/85/171 63/71/173 75/74/174
