# This file uses centimeters as units for non-parametric coordinates.

mtllib overhang1.mtl
g default
v 0.481023 1.034205 -0.740146
v 0.006288 1.034205 -0.740146
v 0.442436 1.386993 -0.740146
v 0.006288 1.443055 -0.740146
v 0.442436 1.386993 0.740146
v 0.006288 1.443055 0.740146
v 0.481023 1.034205 0.740146
v 0.006288 1.034205 0.740146
v 0.404707 1.416558 -0.740146
v 0.404707 1.416558 0.740146
v 0.420326 1.034205 0.740146
v 0.420326 1.034205 -0.740146
v 0.344898 1.443055 -0.740146
v 0.344898 1.443055 0.740146
v 0.344898 1.034205 0.740146
v 0.344898 1.034205 -0.740146
v 0.420326 1.369390 -0.740146
v 0.465403 1.342893 -0.740146
v 0.465403 1.342893 0.740146
v 0.420326 1.369390 0.740146
v 0.344898 1.369390 0.740146
v 0.006288 1.369390 0.740146
v 0.006288 1.369390 -0.740146
v 0.344898 1.369390 -0.740146
v 0.420326 1.292748 -0.740146
v 0.481023 1.292748 -0.740146
v 0.481023 1.292748 0.740146
v 0.420326 1.292748 0.740146
v 0.344898 1.292748 0.740146
v 0.006288 1.292748 0.740146
v 0.006288 1.292748 -0.740146
v 0.344898 1.292748 -0.740146
v 0.353918 1.456760 0.683947
v 0.419083 1.428802 0.683947
v 0.460191 1.397608 0.683947
v 0.485215 1.351076 0.683947
v 0.502234 1.298167 0.683947
v 0.493133 1.020500 0.683947
v 0.420326 1.012601 0.683947
v 0.344898 1.007124 0.683947
v 0.006288 1.009735 0.683947
v 0.006288 1.292748 0.683947
v 0.006288 1.369390 0.683947
v 0.006288 1.456760 0.683947
v 0.353918 1.456760 -0.681338
v 0.419083 1.428802 -0.681338
v 0.460191 1.397608 -0.681338
v 0.485215 1.351076 -0.681338
v 0.502234 1.298167 -0.681338
v 0.493133 1.020500 -0.681338
v 0.420326 1.012601 -0.681338
v 0.344898 1.007124 -0.681338
v 0.006288 1.009735 -0.681338
v 0.006288 1.292748 -0.681338
v 0.006288 1.369390 -0.681338
v 0.006288 1.456760 -0.681338
v 0.481023 0.724224 -0.681338
v 0.481023 0.362114 -0.681338
v 0.481023 0.000004 -0.681338
v 0.420326 0.724224 -0.681338
v 0.420326 0.362114 -0.681338
v 0.420326 0.000004 -0.681338
v 0.420326 0.724224 -0.740146
v 0.420326 0.362114 -0.740146
v 0.420326 0.000004 -0.740146
v 0.481023 0.724224 -0.740146
v 0.481023 0.362114 -0.740146
v 0.481023 0.000004 -0.740146
v 0.481023 0.724224 0.740146
v 0.481023 0.362114 0.740146
v 0.481023 0.000004 0.740146
v 0.420326 0.724224 0.740146
v 0.420326 0.362114 0.740146
v 0.420326 0.000004 0.740146
v 0.420326 0.724224 0.683947
v 0.420326 0.362114 0.683947
v 0.420326 0.000004 0.683947
v 0.481023 0.724224 0.683947
v 0.481023 0.362114 0.683947
v 0.481023 0.000004 0.683947
vt 0.375000 0.000000
vt 0.625000 0.000000
vt 0.375000 0.250000
vt 0.625000 0.250000
vt 0.375000 0.500000
vt 0.625000 0.500000
vt 0.375000 0.750000
vt 0.625000 0.750000
vt 0.375000 1.000000
vt 0.625000 1.000000
vt 0.875000 0.000000
vt 0.875000 0.250000
vt 0.125000 0.000000
vt 0.125000 0.250000
vt 0.385251 0.250000
vt 0.385251 0.500000
vt 0.385251 0.750000
vt 0.385251 0.000000
vt 0.385251 1.000000
vt 0.397990 0.250000
vt 0.397990 0.500000
vt 0.397990 0.750000
vt 0.397990 0.000000
vt 0.397990 1.000000
vt 0.385251 0.202904
vt 0.375000 0.202904
vt 0.125000 0.202904
vt 0.375000 0.547096
vt 0.385251 0.547096
vt 0.397990 0.547096
vt 0.625000 0.547096
vt 0.875000 0.202904
vt 0.625000 0.202904
vt 0.397990 0.202904
vt 0.385251 0.153905
vt 0.375000 0.153905
vt 0.125000 0.153905
vt 0.375000 0.596095
vt 0.385251 0.596095
vt 0.397990 0.596095
vt 0.625000 0.596095
vt 0.875000 0.153905
vt 0.625000 0.153905
vt 0.397990 0.153905
vt 0.397990 0.490509
vt 0.385251 0.490509
vt 0.134491 0.250000
vt 0.375000 0.490509
vt 0.134491 0.202904
vt 0.134491 0.153905
vt 0.134491 0.000000
vt 0.375000 0.759491
vt 0.385251 0.759491
vt 0.397990 0.759491
vt 0.625000 0.759491
vt 0.865509 0.000000
vt 0.865509 0.153905
vt 0.865509 0.202904
vt 0.625000 0.490509
vt 0.865509 0.250000
vt 0.397990 0.259932
vt 0.385251 0.259932
vt 0.365068 0.250000
vt 0.375000 0.259932
vt 0.365068 0.202904
vt 0.365068 0.153905
vt 0.365068 0.000000
vt 0.375000 0.990068
vt 0.385251 0.990068
vt 0.397990 0.990068
vt 0.625000 0.990068
vt 0.634932 0.000000
vt 0.634932 0.153905
vt 0.634932 0.202904
vt 0.625000 0.259932
vt 0.634932 0.250000
vt 0.375000 0.990068
vt 0.375000 0.990068
vt 0.375000 0.990068
vt 0.385251 0.990068
vt 0.385251 0.990068
vt 0.385251 0.990068
vt 0.385251 1.000000
vt 0.385251 1.000000
vt 0.385251 1.000000
vt 0.375000 1.000000
vt 0.375000 1.000000
vt 0.375000 1.000000
vt 0.375000 0.750000
vt 0.375000 0.750000
vt 0.375000 0.750000
vt 0.385251 0.750000
vt 0.385251 0.750000
vt 0.385251 0.750000
vt 0.385251 0.759491
vt 0.385251 0.759491
vt 0.385251 0.759491
vt 0.375000 0.759491
vt 0.375000 0.759491
vt 0.375000 0.759491
vn -0.000000 0.000000 -1.000000
vn -0.000000 0.000000 -1.000000
vn -0.000000 0.000000 -1.000000
vn -0.000000 0.000000 -1.000000
vn 0.581273 0.754231 -0.305380
vn 0.501995 0.813723 -0.293011
vn 0.485251 0.874294 -0.011887
vn 0.604715 0.796275 -0.016288
vn 0.000000 0.000000 1.000000
vn 0.000000 0.000000 1.000000
vn 0.000000 0.000000 1.000000
vn 0.000000 0.000000 1.000000
vn 0.000000 -1.000000 0.000000
vn 0.000000 -1.000000 0.000000
vn 0.000000 -1.000000 0.000000
vn 0.000000 -1.000000 0.000000
vn -1.000000 0.000000 0.000000
vn -1.000000 0.000000 0.000000
vn -1.000000 0.000000 0.000000
vn -1.000000 0.000000 0.000000
vn 0.999421 -0.031626 -0.012520
vn 0.974183 -0.017406 -0.225089
vn 0.958631 0.020672 -0.283899
vn 0.999629 0.025088 -0.010592
vn 0.078044 0.967911 -0.238865
vn 0.066951 0.997718 -0.008723
vn 0.000000 0.000000 1.000000
vn 0.000000 0.000000 1.000000
vn 0.033532 -0.923454 -0.382241
vn 0.088570 -0.996019 -0.010034
vn 0.006752 -0.999829 -0.017243
vn 0.003175 -0.917376 -0.398010
vn -0.000000 0.000000 -1.000000
vn -0.000000 0.000000 -1.000000
vn -0.000000 0.973904 -0.226962
vn -0.000000 0.999955 -0.009503
vn 0.000000 0.000000 1.000000
vn 0.000000 0.000000 1.000000
vn -0.007549 -0.999803 -0.018368
vn -0.003532 -0.915884 -0.401428
vn -0.000000 0.000000 -1.000000
vn -0.000000 0.000000 -1.000000
vn -0.000000 0.000000 -1.000000
vn -0.000000 0.000000 -1.000000
vn -0.000000 0.000000 -1.000000
vn -0.000000 0.000000 -1.000000
vn 0.920671 0.390075 -0.014366
vn 0.875661 0.339982 -0.342971
vn 0.832286 0.440708 -0.336269
vn 0.880762 0.473462 -0.009598
vn 0.000000 0.000000 1.000000
vn 0.000000 0.000000 1.000000
vn 0.000000 0.000000 1.000000
vn 0.000000 0.000000 1.000000
vn 0.000000 0.000000 1.000000
vn 0.000000 0.000000 1.000000
vn 0.000000 0.000000 1.000000
vn 0.000000 0.000000 1.000000
vn -1.000000 0.000000 0.000000
vn -1.000000 0.000000 0.000000
vn -1.000000 0.000000 0.000000
vn -1.000000 0.000000 0.000000
vn -0.000000 0.000000 -1.000000
vn -0.000000 0.000000 -1.000000
vn -0.000000 0.000000 -1.000000
vn -0.000000 0.000000 -1.000000
vn 0.485259 0.874289 0.011905
vn 0.066961 0.997718 0.008706
vn 0.078165 0.965260 0.249326
vn 0.500856 0.809813 0.305525
vn 0.604703 0.796281 0.016433
vn 0.578716 0.750913 0.318147
vn 0.871079 0.337370 0.356934
vn 0.920671 0.390075 0.014382
vn 0.880758 0.473472 0.009454
vn 0.827852 0.438361 0.350001
vn 0.955035 0.020113 0.295809
vn 0.999630 0.025062 0.010553
vn 0.971546 -0.017338 0.236216
vn 0.999420 -0.031673 0.012479
vn 0.000000 -1.000000 0.000000
vn 0.000000 -1.000000 0.000000
vn 0.000000 -1.000000 0.000000
vn 0.000000 -1.000000 0.000000
vn 0.006759 -0.999828 0.017266
vn 0.088624 -0.996014 0.010063
vn 0.033301 -0.917112 0.397235
vn 0.003152 -0.910552 0.413383
vn -0.007556 -0.999802 0.018405
vn -0.003505 -0.908954 0.416881
vn -1.000000 0.000000 0.000000
vn -1.000000 0.000000 0.000000
vn -1.000000 0.000000 0.000000
vn -1.000000 0.000000 0.000000
vn -1.000000 0.000000 0.000000
vn -1.000000 0.000000 0.000000
vn -1.000000 0.000000 0.000000
vn -1.000000 0.000000 0.000000
vn 0.000000 0.999955 0.009521
vn 0.000000 0.971530 0.236916
vn 0.107851 -0.994167 -0.000000
vn 0.107851 -0.994167 -0.000000
vn 0.000000 0.000000 1.000000
vn 0.000000 0.000000 1.000000
vn 0.000000 0.000000 1.000000
vn 0.000000 0.000000 1.000000
vn 0.000000 0.000000 1.000000
vn 0.000000 0.000000 1.000000
vn 0.000000 0.000000 1.000000
vn 0.000000 0.000000 1.000000
vn -1.000000 0.000000 0.000000
vn -1.000000 0.000000 0.000000
vn -1.000000 0.000000 0.000000
vn -1.000000 0.000000 0.000000
vn -1.000000 0.000000 0.000000
vn -1.000000 0.000000 0.000000
vn -1.000000 0.000000 0.000000
vn -1.000000 0.000000 0.000000
vn -0.000000 0.000000 -1.000000
vn -0.000000 0.000000 -1.000000
vn -0.000000 0.000000 -1.000000
vn -0.000000 0.000000 -1.000000
vn -0.000000 0.000000 -1.000000
vn -0.000000 0.000000 -1.000000
vn 0.998810 -0.009091 -0.047920
vn 0.998810 -0.009091 -0.047920
vn 1.000000 0.000000 -0.000000
vn 1.000000 0.000000 -0.000000
vn 1.000000 0.000000 -0.000000
vn 1.000000 0.000000 -0.000000
vn 0.000000 0.000000 1.000000
vn 0.000000 0.000000 1.000000
vn 0.000000 0.000000 1.000000
vn 0.000000 0.000000 1.000000
vn 0.000000 0.000000 1.000000
vn 0.000000 0.000000 1.000000
vn -1.000000 0.000000 0.000000
vn -1.000000 0.000000 0.000000
vn -1.000000 0.000000 0.000000
vn -1.000000 0.000000 0.000000
vn -1.000000 0.000000 0.000000
vn -1.000000 0.000000 0.000000
vn -1.000000 0.000000 0.000000
vn -1.000000 0.000000 0.000000
vn -0.000000 0.000000 -1.000000
vn -0.000000 0.000000 -1.000000
vn -0.000000 0.000000 -1.000000
vn -0.000000 0.000000 -1.000000
vn -0.000000 0.000000 -1.000000
vn -0.000000 0.000000 -1.000000
vn -0.000000 0.000000 -1.000000
vn -0.000000 0.000000 -1.000000
vn 0.998701 -0.009090 0.050139
vn 0.998701 -0.009090 0.050139
vn 1.000000 0.000000 -0.000000
vn 1.000000 0.000000 -0.000000
vn 1.000000 0.000000 -0.000000
vn 1.000000 0.000000 -0.000000
s 1
g pCube1
usemtl initialShadingGroup
f 1/1/1 12/18/2 25/35/3 26/36/4
s 2
f 3/3/5 9/15/6 46/62/7 47/64/8
s 3
f 27/38/9 28/39/10 11/17/11 7/7/12
s off
f 59/79/13 62/82/14 65/85/15 68/88/16
s 4
f 2/2/17 53/72/18 54/73/19 31/43/20
s 5
f 50/67/21 1/1/22 26/36/23 49/66/24
s 2
f 9/15/6 13/20/25 45/61/26 46/62/7
s 3
f 11/17/11 28/39/10 29/40/27 15/22/28
s 6
f 12/19/29 51/69/30 52/70/31 16/24/32
s 1
f 32/44/33 25/35/3 12/18/2 16/23/34
s 2
f 13/20/25 4/4/35 56/75/36 45/61/26
s 3
f 15/22/28 29/40/27 30/41/37 8/8/38
s 6
f 16/24/32 52/70/31 53/71/39 2/10/40
s 1
f 32/44/33 16/23/34 2/2/41 31/43/42
f 18/26/43 17/25/44 9/15/45 3/3/46
s 5
f 48/65/47 18/26/48 3/3/49 47/63/50
s 3
f 5/5/51 10/16/52 20/29/53 19/28/54
f 21/30/55 20/29/53 10/16/52 14/21/56
f 22/31/57 21/30/55 14/21/56 6/6/58
s 4
f 23/33/59 55/74/60 56/76/61 4/4/62
s 1
f 13/20/63 24/34/64 23/33/65 4/4/66
f 9/15/45 17/25/44 24/34/64 13/20/63
f 26/36/4 25/35/3 17/25/44 18/26/43
s 5
f 49/66/24 26/36/23 18/26/48 48/65/47
s 3
f 19/28/54 20/29/53 28/39/10 27/38/9
f 29/40/27 28/39/10 20/29/53 21/30/55
f 30/41/37 29/40/27 21/30/55 22/31/57
s 4
f 31/43/20 54/73/19 55/74/60 23/33/59
s 1
f 24/34/64 32/44/33 31/43/42 23/33/65
f 24/34/64 17/25/44 25/35/3 32/44/33
s 2
f 34/46/67 33/45/68 14/21/69 10/16/70
f 35/48/71 34/46/67 10/16/70 5/5/72
s 5
f 19/27/73 36/49/74 35/47/75 5/14/76
f 27/37/77 37/50/78 36/49/74 19/27/73
f 7/13/79 38/51/80 37/50/78 27/37/77
s off
f 71/91/81 74/94/82 77/97/83 80/100/84
s 6
f 40/54/85 39/53/86 11/17/87 15/22/88
f 41/55/89 40/54/85 15/22/88 8/8/90
s 4
f 42/57/91 41/56/92 8/11/93 30/42/94
f 43/58/95 42/57/91 30/42/94 22/32/96
f 44/60/97 43/58/95 22/32/96 6/12/98
s 2
f 33/45/68 44/59/99 6/6/100 14/21/69
f 46/62/7 45/61/26 33/45/68 34/46/67
f 47/64/8 46/62/7 34/46/67 35/48/71
s 5
f 36/49/74 48/65/47 47/63/50 35/47/75
f 37/50/78 49/66/24 48/65/47 36/49/74
f 38/51/80 50/67/21 49/66/24 37/50/78
s 6
f 38/52/101 39/53/86 51/69/30 50/68/102
f 52/70/31 51/69/30 39/53/86 40/54/85
f 53/71/39 52/70/31 40/54/85 41/55/89
s 4
f 54/73/19 53/72/18 41/56/92 42/57/91
f 55/74/60 54/73/19 42/57/91 43/58/95
f 56/76/61 55/74/60 43/58/95 44/60/97
s 2
f 45/61/26 56/75/36 44/59/99 33/45/68
s 9
f 50/68/103 51/69/104 60/80/105 57/77/106
f 57/77/106 60/80/105 61/81/107 58/78/108
f 58/78/108 61/81/107 62/82/109 59/79/110
s 10
f 51/69/111 12/19/112 63/83/113 60/80/114
f 60/80/114 63/83/113 64/84/115 61/81/116
f 61/81/116 64/84/115 65/85/117 62/82/118
s 1
f 12/19/2 1/9/1 66/86/119 63/83/120
f 63/83/120 66/86/119 67/87/121 64/84/122
f 64/84/122 67/87/121 68/88/123 65/85/124
s 5
f 1/9/22 50/68/21 57/77/125 66/86/126
f 66/86/126 57/77/125 58/78/127 67/87/128
f 67/87/128 58/78/127 59/79/129 68/88/130
s 3
f 7/7/12 11/17/11 72/92/131 69/89/132
f 69/89/132 72/92/131 73/93/133 70/90/134
f 70/90/134 73/93/133 74/94/135 71/91/136
s 11
f 11/17/137 39/53/138 75/95/139 72/92/140
f 72/92/140 75/95/139 76/96/141 73/93/142
f 73/93/142 76/96/141 77/97/143 74/94/144
s 12
f 39/53/145 38/52/146 78/98/147 75/95/148
f 75/95/148 78/98/147 79/99/149 76/96/150
f 76/96/150 79/99/149 80/100/151 77/97/152
s 5
f 38/52/80 7/7/79 69/89/153 78/98/154
f 78/98/154 69/89/153 70/90/155 79/99/156
f 79/99/156 70/90/155 71/91/157 80/100/158
