# This file uses centimeters as units for non-parametric coordinates.

mtllib roundbox1.mtl
g default
v -0.473569 0.030174 0.473569
v 0.473569 0.030174 0.473569
v -0.473569 0.977313 0.473569
v 0.473569 0.977313 0.473569
v -0.473569 0.977313 -0.473569
v 0.473569 0.977313 -0.473569
v -0.473569 0.030174 -0.473569
v 0.473569 0.030174 -0.473569
v -0.457013 0.045326 0.486055
v -0.437017 0.065188 0.492559
v -0.417541 0.085751 0.497141
v 0.457013 0.045326 0.486055
v 0.437017 0.065188 0.492559
v 0.417541 0.085751 0.497141
v 0.457013 0.959352 0.486055
v 0.437017 0.939222 0.492559
v 0.417541 0.920833 0.497141
v -0.457013 0.959352 0.486055
v -0.437017 0.939222 0.492559
v -0.417541 0.920833 0.497141
v 0.457013 0.988394 0.457013
v 0.437017 0.994764 0.437017
v 0.417541 1.000433 0.417541
v -0.457013 0.988394 0.457013
v -0.437017 0.994764 0.437017
v -0.417541 1.000433 0.417541
v 0.457013 0.988394 -0.457013
v 0.437017 0.994764 -0.437017
v 0.417541 1.000433 -0.417541
v -0.457013 0.988394 -0.457013
v -0.437017 0.994764 -0.437017
v -0.417541 1.000433 -0.417541
v 0.457013 0.959352 -0.486055
v 0.437017 0.939222 -0.492559
v 0.417541 0.920833 -0.497141
v -0.457013 0.959352 -0.486055
v -0.437017 0.939222 -0.492559
v -0.417541 0.920833 -0.497141
v 0.457013 0.045326 -0.486055
v 0.437017 0.065188 -0.492559
v 0.417541 0.085751 -0.497141
v -0.457013 0.045326 -0.486055
v -0.437017 0.065188 -0.492559
v -0.417541 0.085751 -0.497141
v 0.486055 0.045326 -0.457013
v 0.492559 0.065188 -0.437017
v 0.497141 0.085751 -0.417541
v 0.486055 0.045326 0.457013
v 0.492559 0.065188 0.437017
v 0.497141 0.085751 0.417541
v 0.486055 0.959352 -0.457013
v 0.492559 0.939222 -0.437017
v 0.497141 0.920833 -0.417541
v 0.486055 0.959352 0.457013
v 0.492559 0.939222 0.437017
v 0.497141 0.920833 0.417541
v -0.486055 0.045326 0.457013
v -0.492559 0.065188 0.437017
v -0.497141 0.085751 0.417541
v -0.486055 0.045326 -0.457013
v -0.492559 0.065188 -0.437017
v -0.497141 0.085751 -0.417541
v -0.486055 0.959352 0.457013
v -0.492559 0.939222 0.437017
v -0.497141 0.920833 0.417541
v -0.486055 0.959352 -0.457013
v -0.492559 0.939222 -0.437017
v -0.497141 0.920833 -0.417541
vt 0.375000 0.000000
vt 0.625000 0.000000
vt 0.625000 0.250000
vt 0.375000 0.250000
vt 0.625000 0.500000
vt 0.375000 0.500000
vt 0.625000 0.750000
vt 0.375000 0.750000
vt 0.625000 1.000000
vt 0.375000 1.000000
vt 0.875000 0.000000
vt 0.875000 0.250000
vt 0.125000 0.000000
vt 0.125000 0.250000
vt 0.375000 0.000000
vt 0.375000 0.000000
vt 0.375000 0.000000
vt 0.625000 0.000000
vt 0.625000 0.000000
vt 0.625000 0.000000
vt 0.625000 0.250000
vt 0.625000 0.250000
vt 0.625000 0.250000
vt 0.375000 0.250000
vt 0.375000 0.250000
vt 0.375000 0.250000
vt 0.375000 0.250000
vt 0.375000 0.250000
vt 0.375000 0.250000
vt 0.625000 0.250000
vt 0.625000 0.250000
vt 0.625000 0.250000
vt 0.625000 0.500000
vt 0.625000 0.500000
vt 0.625000 0.500000
vt 0.375000 0.500000
vt 0.375000 0.500000
vt 0.375000 0.500000
vt 0.375000 0.500000
vt 0.375000 0.500000
vt 0.375000 0.500000
vt 0.625000 0.500000
vt 0.625000 0.500000
vt 0.625000 0.500000
vt 0.625000 0.750000
vt 0.625000 0.750000
vt 0.625000 0.750000
vt 0.375000 0.750000
vt 0.375000 0.750000
vt 0.375000 0.750000
vt 0.625000 0.000000
vt 0.625000 0.000000
vt 0.625000 0.000000
vt 0.875000 0.000000
vt 0.875000 0.000000
vt 0.875000 0.000000
vt 0.875000 0.250000
vt 0.875000 0.250000
vt 0.875000 0.250000
vt 0.625000 0.250000
vt 0.625000 0.250000
vt 0.625000 0.250000
vt 0.125000 0.000000
vt 0.125000 0.000000
vt 0.125000 0.000000
vt 0.375000 0.000000
vt 0.375000 0.000000
vt 0.375000 0.000000
vt 0.375000 0.250000
vt 0.375000 0.250000
vt 0.375000 0.250000
vt 0.125000 0.250000
vt 0.125000 0.250000
vt 0.125000 0.250000
vn 0.000000 0.000000 1.000000
vn 0.000000 0.000000 1.000000
vn 0.000000 0.000000 1.000000
vn 0.000000 0.000000 1.000000
vn 0.000000 1.000000 0.000000
vn 0.000000 1.000000 0.000000
vn 0.000000 1.000000 0.000000
vn 0.000000 1.000000 0.000000
vn 0.000000 0.000000 -1.000000
vn 0.000000 0.000000 -1.000000
vn 0.000000 0.000000 -1.000000
vn 0.000000 0.000000 -1.000000
vn 0.000000 -1.000000 0.000000
vn 0.000000 -1.000000 0.000000
vn 0.000000 -1.000000 0.000000
vn 0.000000 -1.000000 0.000000
vn 1.000000 0.000000 0.000000
vn 1.000000 0.000000 0.000000
vn 1.000000 0.000000 0.000000
vn 1.000000 0.000000 0.000000
vn -1.000000 0.000000 0.000000
vn -1.000000 0.000000 0.000000
vn -1.000000 0.000000 0.000000
vn -1.000000 0.000000 0.000000
vn 0.000000 -0.556904 0.830577
vn 0.000000 -0.556904 0.830577
vn 0.000000 -0.287653 0.957735
vn 0.000000 -0.287653 0.957735
vn 0.000000 0.000000 1.000000
vn 0.000000 0.000000 1.000000
vn 0.602138 0.000000 0.798392
vn 0.602138 0.000000 0.798392
vn 0.532715 0.000000 0.846295
vn 0.530264 0.000000 0.847832
vn 0.289919 0.000000 0.957051
vn 0.290888 0.000000 0.956757
vn 0.000000 0.000000 1.000000
vn 0.000000 0.000000 1.000000
vn 0.000000 0.570813 0.821080
vn 0.000000 0.570813 0.821080
vn 0.000000 0.508064 0.861319
vn 0.000000 0.508064 0.861319
vn 0.000000 0.293048 0.956098
vn 0.000000 0.293048 0.956098
vn 0.000000 0.000000 1.000000
vn 0.000000 0.000000 1.000000
vn -0.602138 0.000000 0.798392
vn -0.602138 0.000000 0.798392
vn -0.530265 0.000000 0.847832
vn -0.532715 0.000000 0.846294
vn -0.290888 0.000000 0.956757
vn -0.289919 0.000000 0.957051
vn 0.000000 0.000000 1.000000
vn 0.000000 0.000000 1.000000
vn 0.000000 0.831024 0.556237
vn 0.000000 0.831024 0.556237
vn -0.000000 0.870092 0.492890
vn -0.000000 0.870092 0.492890
vn -0.000000 0.954650 0.297730
vn -0.000000 0.954650 0.297731
vn 0.000000 1.000000 0.000000
vn 0.000000 1.000000 0.000000
vn 0.556237 0.831024 0.000000
vn 0.556237 0.831024 0.000000
vn 0.492890 0.870092 0.000000
vn 0.492890 0.870092 0.000000
vn 0.297731 0.954650 0.000000
vn 0.297731 0.954650 0.000000
vn 0.000000 1.000000 0.000000
vn 0.000000 1.000000 0.000000
vn 0.000000 0.831024 -0.556237
vn 0.000000 0.831024 -0.556237
vn 0.000000 0.870092 -0.492890
vn 0.000000 0.870092 -0.492890
vn 0.000000 0.954650 -0.297731
vn 0.000000 0.954650 -0.297731
vn 0.000000 1.000000 0.000000
vn 0.000000 1.000000 0.000000
vn -0.556237 0.831024 0.000000
vn -0.556237 0.831024 0.000000
vn -0.492890 0.870091 0.000000
vn -0.492890 0.870091 0.000000
vn -0.297732 0.954650 0.000000
vn -0.297732 0.954650 0.000000
vn 0.000000 1.000000 0.000000
vn 0.000000 1.000000 0.000000
vn 0.000000 0.570813 -0.821080
vn 0.000000 0.570813 -0.821080
vn 0.000000 0.508064 -0.861319
vn 0.000000 0.508064 -0.861319
vn 0.000000 0.293048 -0.956098
vn 0.000000 0.293048 -0.956098
vn 0.000000 0.000000 -1.000000
vn 0.000000 0.000000 -1.000000
vn 0.602132 0.000000 -0.798396
vn 0.602132 0.000000 -0.798396
vn 0.530262 -0.000000 -0.847834
vn 0.532712 -0.000000 -0.846296
vn 0.290894 -0.000000 -0.956755
vn 0.289925 -0.000000 -0.957049
vn 0.000000 0.000000 -1.000000
vn 0.000000 0.000000 -1.000000
vn 0.000000 -0.556896 -0.830582
vn 0.000000 -0.556896 -0.830582
vn 0.000000 -0.287663 -0.957732
vn 0.000000 -0.287663 -0.957732
vn 0.000000 0.000000 -1.000000
vn 0.000000 0.000000 -1.000000
vn -0.602132 0.000000 -0.798396
vn -0.602132 0.000000 -0.798396
vn -0.532712 -0.000000 -0.846296
vn -0.530262 -0.000000 -0.847834
vn -0.289924 -0.000000 -0.957050
vn -0.290893 -0.000000 -0.956756
vn 0.000000 0.000000 -1.000000
vn 0.000000 0.000000 -1.000000
vn 0.830574 -0.556908 0.000000
vn 0.830574 -0.556909 0.000000
vn 0.957733 -0.287659 0.000000
vn 0.957733 -0.287659 0.000000
vn 1.000000 0.000000 0.000000
vn 1.000000 0.000000 0.000000
vn 0.798395 -0.000000 -0.602134
vn 0.798395 -0.000000 -0.602134
vn 0.846295 -0.000000 -0.532714
vn 0.847833 -0.000000 -0.530263
vn 0.957050 0.000000 -0.289923
vn 0.956756 0.000000 -0.290892
vn 1.000000 0.000000 0.000000
vn 1.000000 0.000000 0.000000
vn 0.821080 0.570813 0.000000
vn 0.821080 0.570813 0.000000
vn 0.861319 0.508065 0.000000
vn 0.861319 0.508065 0.000000
vn 0.956097 0.293051 0.000000
vn 0.956097 0.293051 0.000000
vn 1.000000 0.000000 0.000000
vn 1.000000 0.000000 0.000000
vn 0.798393 -0.000000 0.602137
vn 0.798393 -0.000000 0.602137
vn 0.847833 -0.000000 0.530264
vn 0.846295 -0.000000 0.532715
vn 0.956756 0.000000 0.290890
vn 0.957050 0.000000 0.289921
vn 1.000000 0.000000 0.000000
vn 1.000000 0.000000 0.000000
vn -0.830574 -0.556908 0.000000
vn -0.830574 -0.556908 0.000000
vn -0.957733 -0.287659 0.000000
vn -0.957733 -0.287659 0.000000
vn -1.000000 0.000000 0.000000
vn -1.000000 0.000000 0.000000
vn -0.798393 -0.000000 0.602137
vn -0.798393 -0.000000 0.602137
vn -0.846295 -0.000000 0.532715
vn -0.847833 -0.000000 0.530264
vn -0.957050 0.000000 0.289922
vn -0.956756 0.000000 0.290890
vn -1.000000 0.000000 0.000000
vn -1.000000 0.000000 0.000000
vn -0.821080 0.570813 0.000000
vn -0.821080 0.570813 0.000000
vn -0.861319 0.508065 0.000000
vn -0.861319 0.508065 0.000000
vn -0.956097 0.293050 0.000000
vn -0.956097 0.293050 0.000000
vn -1.000000 0.000000 0.000000
vn -1.000000 0.000000 0.000000
vn -0.798395 -0.000000 -0.602134
vn -0.798395 -0.000000 -0.602134
vn -0.847833 -0.000000 -0.530263
vn -0.846295 -0.000000 -0.532714
vn -0.956756 0.000000 -0.290891
vn -0.957050 0.000000 -0.289923
vn -1.000000 0.000000 0.000000
vn -1.000000 0.000000 0.000000
s off
g box1:pCube1
usemtl box1:initialShadingGroup
f 11/68/1 14/2/2 17/3/3 20/71/4
f 26/71/5 23/3/6 29/5/7 32/6/8
f 38/6/9 35/5/10 41/7/11 44/8/12
s 1
f 7/8/13 8/7/14 2/9/15 1/10/16
s off
f 50/2/17 47/11/18 53/12/19 56/3/20
f 62/65/21 59/68/22 65/71/23 68/74/24
s 1
f 1/1/16 2/2/15 12/18/25 9/15/26
f 9/15/26 12/18/25 13/19/27 10/16/28
f 10/16/28 13/19/27 14/20/29 11/17/30
s 2
f 2/2/31 4/3/32 15/21/33 12/18/34
f 12/18/34 15/21/33 16/22/35 13/19/36
f 13/19/36 16/22/35 17/23/37 14/20/38
s 3
f 4/3/39 3/4/40 18/24/41 15/21/42
f 15/21/42 18/24/41 19/25/43 16/22/44
f 16/22/44 19/25/43 20/26/45 17/23/46
s 4
f 3/4/47 1/1/48 9/15/49 18/24/50
f 18/24/50 9/15/49 10/16/51 19/25/52
f 19/25/52 10/16/51 11/17/53 20/26/54
s 5
f 3/4/55 4/3/56 21/30/57 24/27/58
f 24/27/58 21/30/57 22/31/59 25/28/60
f 25/28/60 22/31/59 23/32/61 26/29/62
s 6
f 4/3/63 6/5/64 27/33/65 21/30/66
f 21/30/66 27/33/65 28/34/67 22/31/68
f 22/31/68 28/34/67 29/35/69 23/32/70
s 7
f 6/5/71 5/6/72 30/36/73 27/33/74
f 27/33/74 30/36/73 31/37/75 28/34/76
f 28/34/76 31/37/75 32/38/77 29/35/78
s 8
f 5/6/79 3/4/80 24/27/81 30/36/82
f 30/36/82 24/27/81 25/28/83 31/37/84
f 31/37/84 25/28/83 26/29/85 32/38/86
s 9
f 5/6/87 6/5/88 33/42/89 36/39/90
f 36/39/90 33/42/89 34/43/91 37/40/92
f 37/40/92 34/43/91 35/44/93 38/41/94
s 10
f 6/5/95 8/7/96 39/45/97 33/42/98
f 33/42/98 39/45/97 40/46/99 34/43/100
f 34/43/100 40/46/99 41/47/101 35/44/102
s 1
f 8/7/14 7/8/13 42/48/103 39/45/104
f 39/45/104 42/48/103 43/49/105 40/46/106
f 40/46/106 43/49/105 44/50/107 41/47/108
s 11
f 7/8/109 5/6/110 36/39/111 42/48/112
f 42/48/112 36/39/111 37/40/113 43/49/114
f 43/49/114 37/40/113 38/41/115 44/50/116
s 1
f 2/2/15 8/11/14 45/54/117 48/51/118
f 48/51/118 45/54/117 46/55/119 49/52/120
f 49/52/120 46/55/119 47/56/121 50/53/122
s 12
f 8/11/123 6/12/124 51/57/125 45/54/126
f 45/54/126 51/57/125 52/58/127 46/55/128
f 46/55/128 52/58/127 53/59/129 47/56/130
s 13
f 6/12/131 4/3/132 54/60/133 51/57/134
f 51/57/134 54/60/133 55/61/135 52/58/136
f 52/58/136 55/61/135 56/62/137 53/59/138
s 14
f 4/3/139 2/2/140 48/51/141 54/60/142
f 54/60/142 48/51/141 49/52/143 55/61/144
f 55/61/144 49/52/143 50/53/145 56/62/146
s 1
f 7/13/13 1/1/16 57/66/147 60/63/148
f 60/63/148 57/66/147 58/67/149 61/64/150
f 61/64/150 58/67/149 59/68/151 62/65/152
s 15
f 1/1/153 3/4/154 63/69/155 57/66/156
f 57/66/156 63/69/155 64/70/157 58/67/158
f 58/67/158 64/70/157 65/71/159 59/68/160
s 16
f 3/4/161 5/14/162 66/72/163 63/69/164
f 63/69/164 66/72/163 67/73/165 64/70/166
f 64/70/166 67/73/165 68/74/167 65/71/168
s 17
f 5/14/169 7/13/170 60/63/171 66/72/172
f 66/72/172 60/63/171 61/64/173 67/73/174
f 67/73/174 61/64/173 62/65/175 68/74/176
